<?xml version="1.0" encoding="UTF-8"?>
<svg version="1.1" xmlns="http://www.w3.org/2000/svg" width="600" height="600">
<path d="M0 0 C0.82849457 0.00215515 1.65698914 0.0043103 2.5105896 0.00653076 C63.07458575 0.25821093 119.10629549 24.15883616 162.375 66.3125 C163.3134375 67.21097656 164.251875 68.10945313 165.21875 69.03515625 C198.00016694 100.95656689 220.89464988 147.11352501 227.375 192.3125 C227.54725098 193.43841553 227.71950195 194.56433105 227.89697266 195.72436523 C229.44510544 206.70397661 229.7736913 217.54586834 229.75 228.625 C229.74978851 229.54225861 229.74957703 230.45951721 229.74935913 231.40457153 C229.69839507 253.64881541 226.9980004 275.01707698 220.375 296.3125 C220.13974609 297.08513184 219.90449219 297.85776367 219.66210938 298.65380859 C209.01841338 333.00710972 189.98064811 363.97508358 164.96777344 389.67285156 C163.5511962 391.13111838 162.15313085 392.60731656 160.7578125 394.0859375 C154.19153125 400.91056424 146.92245369 406.63103006 139.375 412.3125 C138.42367188 413.03566406 137.47234375 413.75882812 136.4921875 414.50390625 C105.19657435 437.81594461 68.03128339 452.35014587 29.375 457.3125 C28.67866455 457.4067627 27.9823291 457.50102539 27.26489258 457.59814453 C18.77267063 458.60763992 10.22726144 458.55618495 1.6875 458.5625 C0.45554398 458.56351212 0.45554398 458.56351212 -0.80130005 458.56454468 C-14.27452795 458.54701315 -27.36215853 457.85493735 -40.625 455.3125 C-41.53169434 455.14089355 -42.43838867 454.96928711 -43.37255859 454.79248047 C-78.23148957 447.97900558 -111.85633389 433.67487713 -139.625 411.3125 C-140.51960938 410.60867188 -141.41421875 409.90484375 -142.3359375 409.1796875 C-189.9731528 371.09721452 -220.70351079 316.07524026 -227.9375 255.375 C-233.73440376 197.09816222 -218.89323564 135.23779503 -181.72143555 89.21459961 C-180.36636555 87.57156188 -178.99742735 85.94105612 -177.625 84.3125 C-177.13644531 83.72388184 -176.64789063 83.13526367 -176.14453125 82.52880859 C-166.54535166 70.97092751 -156.41986171 60.66998422 -144.625 51.3125 C-143.44164062 50.32830078 -143.44164062 50.32830078 -142.234375 49.32421875 C-102.51861489 16.51268846 -51.18995442 -0.24167236 0 0 Z " fill="#000000" transform="translate(295.625,54.6875)"/>
<path d="M0 0 C18.15 0 36.3 0 55 0 C55.067774 27.69488834 55.12301505 55.38970931 55.15543652 83.08465958 C55.17089185 95.9444908 55.19195594 108.80426675 55.22631836 121.6640625 C55.25626147 132.87533727 55.27558469 144.08657201 55.28226548 155.29788566 C55.2861694 161.23174481 55.29531649 167.16548945 55.31719017 173.09931183 C55.33763285 178.69051662 55.34381807 184.2815603 55.33932304 189.87279892 C55.34014477 191.91894025 55.34606379 193.96508726 55.35761642 196.01119614 C55.41346238 206.41726873 55.34703247 216.01433172 52 226 C51.47019531 227.76150391 51.47019531 227.76150391 50.9296875 229.55859375 C44.58201443 246.88539025 32.81854258 259.98600229 16.13818359 268.08007812 C5.30262127 272.7419186 -6.77696325 276.13037074 -18.58203125 276.203125 C-19.31387131 276.20882507 -20.04571136 276.21452515 -20.79972839 276.22039795 C-22.35043916 276.22982207 -23.90116971 276.23637162 -25.4519043 276.24023438 C-27.7671482 276.24981238 -30.08145334 276.28080421 -32.39648438 276.3125 C-56.33512342 276.48568192 -77.73462684 269.82423389 -95.375 253.0625 C-102.93139691 244.98113236 -107.63189334 236.53110061 -111 226 C-111.24992203 225.22020782 -111.49984406 224.44041565 -111.75733948 223.63699341 C-113.76851838 216.90344162 -114.40770036 210.86733003 -114.29296875 203.86328125 C-114.28994751 202.97008179 -114.28692627 202.07688232 -114.28381348 201.15661621 C-114.26832223 197.87512366 -114.22644136 194.59379806 -114.1875 191.3125 C-114.125625 183.949375 -114.06375 176.58625 -114 169 C-96.18 169 -78.36 169 -60 169 C-59.6875 183.625 -59.6875 183.625 -59.61206055 188.14306641 C-59.1705281 206.32138517 -59.1705281 206.32138517 -51 222 C-42.68481971 229.43694777 -32.99415095 228.70743741 -22.35009766 228.23095703 C-17.48262104 227.75260331 -13.84002732 225.91874688 -10 223 C-9.05125 222.319375 -8.1025 221.63875 -7.125 220.9375 C0.41534568 210.51408097 -0.41909397 197.97198827 -0.45410156 185.72753906 C-0.44535438 183.69623019 -0.43486463 181.6649282 -0.42277527 179.63363647 C-0.39503503 174.15099548 -0.39150794 168.66858066 -0.39249516 163.18587971 C-0.38935574 157.44432383 -0.36371614 151.70286828 -0.34051514 145.96136475 C-0.30003031 135.1032301 -0.27963209 124.2451554 -0.26654124 113.38695693 C-0.25064572 101.01926659 -0.21221933 88.65167789 -0.17194796 76.28404665 C-0.08965182 50.85604511 -0.03846915 25.42810822 0 0 Z " fill="#FDFDFD" transform="translate(313,140)"/>
</svg>
