<?xml version="1.0" encoding="UTF-8"?>
<svg version="1.1" xmlns="http://www.w3.org/2000/svg" width="192" height="192">
<path d="M0 0 C0.928125 0.24363281 1.85625 0.48726562 2.8125 0.73828125 C11.34799992 3.35599998 17.9947258 8.65457421 25 14 C25.79535156 14.55558594 26.59070313 15.11117187 27.41015625 15.68359375 C27.93480469 16.11800781 28.45945312 16.55242188 29 17 C29 17.66 29 18.32 29 19 C29.66 19 30.32 19 31 19 C38.03099794 26.72651032 43.34051465 35.18437107 47 45 C47.26707764 45.68682861 47.53415527 46.37365723 47.80932617 47.08129883 C50.2641241 54.10509213 50.49341128 60.88592983 50.44604492 68.28491211 C50.43755389 70.29971379 50.46635887 72.31164964 50.49804688 74.32617188 C50.48788999 94.9954258 41.58409209 111.11771139 27.5625 125.75 C13.12867452 139.71742636 -6.014189 145.57940456 -25.82421875 145.41748047 C-42.54417844 144.88493368 -60.6070273 138.56677452 -73 127 C-74.38576923 125.37667033 -75.72641268 123.71275535 -77 122 C-77.763125 121.29875 -78.52625 120.5975 -79.3125 119.875 C-85.43780594 113.32234713 -89.80770914 105.34379885 -93 97 C-93.37253906 96.16339844 -93.74507812 95.32679687 -94.12890625 94.46484375 C-99.97154353 79.33913121 -99.30062045 58.86552637 -93 44 C-92.5875 42.99582031 -92.175 41.99164063 -91.75 40.95703125 C-83.47849968 22.79262855 -69.02914059 8.75889405 -50.5625 1.25 C-34.22853554 -4.64995696 -16.67188106 -4.77232595 0 0 Z " fill="#000000" transform="translate(118,20)"/>
<path d="M0 0 C5.94 0 11.88 0 18 0 C18.09070046 8.82375956 18.16394485 17.64720485 18.20724869 26.47132683 C18.22804201 30.56960371 18.25620646 34.66754259 18.30175781 38.765625 C18.3455132 42.72733972 18.36919905 46.68873121 18.37950897 50.6506691 C18.38684752 52.15522467 18.40117683 53.6597644 18.42292023 55.16418076 C18.55668657 64.81115524 18.29185301 73.57871198 12.0703125 81.4375 C11.10738281 82.2109375 11.10738281 82.2109375 10.125 83 C9.48820312 83.53625 8.85140625 84.0725 8.1953125 84.625 C2.57085702 88.14779062 -2.93622312 88.36487614 -9.375 88.375 C-10.18710938 88.39949219 -10.99921875 88.42398438 -11.8359375 88.44921875 C-18.83636033 88.48287463 -23.95618556 86.66731474 -29.2421875 82.03515625 C-29.78101562 81.38417969 -30.31984375 80.73320313 -30.875 80.0625 C-31.42929688 79.41410156 -31.98359375 78.76570313 -32.5546875 78.09765625 C-36.16288682 72.86089129 -36.25796259 68.33613752 -36.125 62.1875 C-36.08375 59.485625 -36.0425 56.78375 -36 54 C-30.39 54 -24.78 54 -19 54 C-18.8046875 56.96223958 -18.609375 59.92447917 -18.4140625 62.88671875 C-18.00844482 65.93650451 -17.37473086 68.25548335 -16 71 C-13.70013269 72.14993366 -12.18530912 72.2316929 -9.625 72.3125 C-8.85414062 72.34988281 -8.08328125 72.38726562 -7.2890625 72.42578125 C-4.05125025 71.82352607 -3.02957314 70.56711557 -1 68 C-0.38366395 64.85800372 -0.38366395 64.85800372 -0.45410156 61.30371094 C-0.44376389 60.63988403 -0.43342621 59.97605713 -0.42277527 59.29211426 C-0.39336354 57.1059531 -0.39184857 54.92071839 -0.390625 52.734375 C-0.37564209 51.21549719 -0.3589147 49.69663567 -0.34051514 48.17779541 C-0.2968411 44.18623097 -0.27684266 40.19488629 -0.26177979 36.203125 C-0.2422087 32.12747197 -0.20023877 28.05205629 -0.16015625 23.9765625 C-0.08485342 15.98440804 -0.03663353 7.99242536 0 0 Z " fill="#F9F9F9" transform="translate(100,45)"/>
</svg>
