<?xml version="1.0" encoding="UTF-8"?>
<svg version="1.1" xmlns="http://www.w3.org/2000/svg" width="1280" height="904">
<path d="M0 0 C1.28777344 1.16595703 1.28777344 1.16595703 2.6015625 2.35546875 C2.6015625 3.01546875 2.6015625 3.67546875 2.6015625 4.35546875 C3.19453125 4.44957031 3.7875 4.54367187 4.3984375 4.640625 C7.09298891 5.51492094 8.06479006 6.62267193 9.8515625 8.79296875 C10.63273437 9.71916016 10.63273437 9.71916016 11.4296875 10.6640625 C12.6015625 12.35546875 12.6015625 12.35546875 12.6015625 14.35546875 C13.17390625 14.57203125 13.74625 14.78859375 14.3359375 15.01171875 C17.35041809 16.79961759 18.82822708 19.00781149 20.8515625 21.85546875 C21.55796875 22.83515625 22.264375 23.81484375 22.9921875 24.82421875 C24.6015625 27.35546875 24.6015625 27.35546875 24.6015625 29.35546875 C25.2615625 29.35546875 25.9215625 29.35546875 26.6015625 29.35546875 C28.29536572 32.67562284 29.951989 36.01313919 31.6015625 39.35546875 C32.09398437 40.33257812 32.58640625 41.3096875 33.09375 42.31640625 C36.05367005 48.40494645 38.45767625 54.51039934 40.4140625 60.98046875 C40.62095703 61.64828369 40.82785156 62.31609863 41.04101562 63.00415039 C48.76582641 89.84266598 45.12402259 124.59305843 31.86328125 149.1484375 C31.44691406 149.87675781 31.03054688 150.60507812 30.6015625 151.35546875 C30.17488281 152.13535156 29.74820313 152.91523438 29.30859375 153.71875 C22.16015684 166.27356776 12.69673167 178.13526719 1.6015625 187.35546875 C0.36792969 188.38607422 0.36792969 188.38607422 -0.890625 189.4375 C-5.54295632 193.24845226 -10.0804829 196.56987348 -15.3984375 199.35546875 C-16.19636719 199.81566406 -16.99429688 200.27585937 -17.81640625 200.75 C-24.7602861 204.70791132 -31.7720926 207.94989316 -39.3984375 210.35546875 C-40.12804687 210.58685547 -40.85765625 210.81824219 -41.609375 211.05664062 C-71.66263387 220.14651974 -103.25238974 216.73118064 -131.3984375 203.35546875 C-133.08041241 202.38143683 -134.74975507 201.38484915 -136.3984375 200.35546875 C-137.11902344 199.96488281 -137.83960938 199.57429687 -138.58203125 199.171875 C-153.48536324 190.88076656 -166.20787911 177.85742451 -176.3984375 164.35546875 C-176.89988281 163.70578125 -177.40132812 163.05609375 -177.91796875 162.38671875 C-184.99769612 152.55701463 -191.2311359 139.90453763 -193.78515625 128.04101562 C-194.35958729 125.37560833 -194.35958729 125.37560833 -195.15356445 122.89086914 C-197.6991306 114.29187014 -197.82597195 106.07480222 -197.73461914 97.19140625 C-197.71090925 94.7275334 -197.71409537 92.26474043 -197.72070312 89.80078125 C-197.70695649 81.78391536 -197.54066617 74.13831251 -195.3984375 66.35546875 C-195.232229 65.70223633 -195.06602051 65.04900391 -194.89477539 64.37597656 C-192.75947452 56.33111419 -189.85208545 48.70175342 -186.3359375 41.16796875 C-186.00770996 40.46148193 -185.67948242 39.75499512 -185.34130859 39.02709961 C-183.41357471 35.03159926 -181.25695412 31.77763653 -178.3984375 28.35546875 C-177.38865547 26.69471048 -176.38829937 25.02817651 -175.3984375 23.35546875 C-166.28525682 10.6059943 -154.84941266 -0.6101913 -141.3984375 -8.64453125 C-140.15320313 -9.44310547 -140.15320313 -9.44310547 -138.8828125 -10.2578125 C-131.10430156 -15.09160144 -123.19106382 -18.15192477 -114.50610352 -20.9519043 C-113.06180437 -21.42653382 -111.62488058 -21.92404029 -110.19506836 -22.44067383 C-104.91110593 -24.32317504 -99.91537999 -25.32454345 -94.3359375 -25.83203125 C-93.51230713 -25.91098633 -92.68867676 -25.98994141 -91.84008789 -26.07128906 C-57.86391569 -29.0943014 -26.91586036 -21.50591417 0 0 Z M-66.3984375 21.35546875 C-66.49932599 22.70110946 -66.53194016 24.05195735 -66.53646851 25.40136719 C-66.54192184 26.27322159 -66.54737518 27.14507599 -66.55299377 28.04335022 C-66.55455727 29.48948952 -66.55455727 29.48948952 -66.55615234 30.96484375 C-66.56123306 31.97465805 -66.56631378 32.98447235 -66.57154846 34.02488708 C-66.58228059 36.22714357 -66.59088952 38.42941115 -66.59766769 40.63168335 C-66.60942669 44.12080633 -66.62887458 47.60980384 -66.65078735 51.09887695 C-66.71248442 61.02274371 -66.76635898 70.94660024 -66.79980469 80.87060547 C-66.82079391 86.93432164 -66.85613989 92.9978136 -66.90056229 99.06140137 C-66.91469786 101.37053784 -66.92343919 103.67971404 -66.92661667 105.9888916 C-66.93154553 109.22981047 -66.95475786 112.47013926 -66.98193359 115.7109375 C-66.97892746 116.65883652 -66.97592133 117.60673553 -66.9728241 118.58335876 C-67.04587955 124.47372442 -67.64895197 130.05012243 -70.3984375 135.35546875 C-74.5841021 139.18100245 -79.8145796 140.44357696 -85.3984375 140.35546875 C-90.94757455 139.41493705 -93.84607815 137.71979595 -97.3984375 133.35546875 C-99.91881779 128.64539637 -99.80057928 123.82297762 -99.9609375 118.60546875 C-100.02060834 116.88136248 -100.08419384 115.15738568 -100.15234375 113.43359375 C-100.17627197 112.6746582 -100.2002002 111.91572266 -100.22485352 111.13378906 C-100.21076274 109.33145452 -100.21076274 109.33145452 -101.3984375 108.35546875 C-103.16702943 108.25600422 -104.93955201 108.22466658 -106.7109375 108.22265625 C-107.78601563 108.22136719 -108.86109375 108.22007812 -109.96875 108.21875 C-111.10054687 108.22261719 -112.23234375 108.22648437 -113.3984375 108.23046875 C-114.53023437 108.22660156 -115.66203125 108.22273438 -116.828125 108.21875 C-117.90320313 108.22003906 -118.97828125 108.22132813 -120.0859375 108.22265625 C-121.07980469 108.22378418 -122.07367188 108.22491211 -123.09765625 108.22607422 C-125.36218976 108.09712545 -125.36218976 108.09712545 -126.3984375 109.35546875 C-127.08286758 124.36517962 -126.98419317 139.28850209 -116.3359375 151.10546875 C-106.92161363 159.87554529 -96.23163994 161.59195903 -83.9609375 161.73046875 C-82.73955078 161.76785156 -81.51816406 161.80523437 -80.25976562 161.84375 C-68.59749541 161.95546946 -57.89285488 158.65985442 -49.3984375 150.35546875 C-38.00046081 137.55546304 -39.98030847 119.67375061 -40.0703125 103.71484375 C-40.07337447 101.33685425 -40.07524726 98.95886294 -40.07598877 96.58087158 C-40.08056794 91.62529518 -40.09491093 86.66988344 -40.1171875 81.71435547 C-40.14565392 75.34862835 -40.15642013 68.98302947 -40.1608696 62.61724472 C-40.16501277 57.72069001 -40.17481794 52.82416139 -40.18674469 47.92761993 C-40.19245433 45.57835346 -40.19721074 43.22908448 -40.20101166 40.87981415 C-40.20784425 37.61481739 -40.2214573 34.34992477 -40.23730469 31.08496094 C-40.23898148 29.62019569 -40.23898148 29.62019569 -40.24069214 28.12583923 C-40.24640228 27.24293716 -40.25211243 26.3600351 -40.25799561 25.45037842 C-40.2624576 24.29350588 -40.2624576 24.29350588 -40.26700974 23.11326218 C-40.2082754 21.32815875 -40.2082754 21.32815875 -41.3984375 20.35546875 C-43.16702943 20.25600422 -44.93955201 20.22466658 -46.7109375 20.22265625 C-47.78601563 20.22136719 -48.86109375 20.22007812 -49.96875 20.21875 C-51.10054688 20.22261719 -52.23234375 20.22648437 -53.3984375 20.23046875 C-54.53023438 20.22660156 -55.66203125 20.22273438 -56.828125 20.21875 C-57.90320313 20.22003906 -58.97828125 20.22132813 -60.0859375 20.22265625 C-61.07980469 20.22378418 -62.07367188 20.22491211 -63.09765625 20.22607422 C-65.36218976 20.09712545 -65.36218976 20.09712545 -66.3984375 21.35546875 Z " fill="#000000" transform="translate(297.3984375,349.64453125)"/>
<path d="M0 0 C11.1375 -0.04125 22.275 -0.0825 33.75 -0.125 C37.24303711 -0.14320801 40.73607422 -0.16141602 44.33496094 -0.18017578 C48.66064453 -0.18920898 48.66064453 -0.18920898 50.69732666 -0.19088745 C52.09431235 -0.1939221 53.49129341 -0.20087855 54.88824463 -0.21115112 C67.60461092 -0.29983842 79.11406774 -0.20230872 90 7 C90 7.66 90 8.32 90 9 C90.60585938 9.25523437 91.21171875 9.51046875 91.8359375 9.7734375 C96.5473791 12.44382137 98.56389835 17.77476202 100.3125 22.6875 C102.46648104 33.2088689 101.39067487 42.9201692 96.1875 52.25 C92.08042841 57.41317571 88.25809837 60.08247682 82 62 C82.86342991 63.62616203 83.72708639 65.2522041 84.59179688 66.87768555 C85.3244425 68.25498749 86.05620844 69.63275772 86.78710938 71.01098633 C89.15308396 75.45874538 91.59625557 79.84638676 94.1875 84.16796875 C95 86 95 86 95 90 C95.66 90 96.32 90 97 90 C97.50660156 91.03060547 97.50660156 91.03060547 98.0234375 92.08203125 C98.46945312 92.98308594 98.91546875 93.88414062 99.375 94.8125 C99.81585937 95.70582031 100.25671875 96.59914063 100.7109375 97.51953125 C102.01866905 100.14556381 102.01866905 100.14556381 104 103 C104 104.32 104 105.64 104 107 C98.53756862 107.19809361 93.07723481 107.34307407 87.61206055 107.43945312 C85.7542682 107.47963212 83.89672804 107.53418925 82.03979492 107.60351562 C79.3657419 107.70083198 76.69503448 107.7459756 74.01953125 107.78125 C73.19226028 107.82254028 72.36498932 107.86383057 71.51264954 107.90637207 C69.09634969 107.90824289 67.27720514 107.8171491 65 107 C62.73517548 104.59291997 61.37004461 101.98747154 60 99 C59.41476562 97.82179688 58.82953125 96.64359375 58.2265625 95.4296875 C57.69804688 94.25664062 57.16953125 93.08359375 56.625 91.875 C56.01830149 90.57809116 55.41152868 89.28121708 54.8046875 87.984375 C53.58169829 85.33478258 52.45765836 82.66589387 51.3828125 79.953125 C50.83888898 78.67693525 50.29463083 77.40088806 49.75 76.125 C49.06164062 74.39636719 49.06164062 74.39636719 48.359375 72.6328125 C45.50431231 69.44686506 44.41078083 69.50355532 40.265625 69.1171875 C38.51125056 69.05046056 36.75564097 69.00263836 35 69 C35.05329468 70.67340454 35.05329468 70.67340454 35.10766602 72.38061523 C35.23766229 76.50465346 35.3609529 80.62886921 35.48217773 84.75317383 C35.53567402 86.54099032 35.59100904 88.32875275 35.64819336 90.11645508 C35.72989235 92.68038266 35.80505945 95.24442953 35.87890625 97.80859375 C35.90594131 98.6127623 35.93297638 99.41693085 35.96083069 100.24546814 C36.01285627 102.16298422 36.01187441 104.08181503 36 106 C35.67 106.33 35.34 106.66 35 107 C23.45 107 11.9 107 0 107 C0 71.69 0 36.38 0 0 Z M35 27 C34.90024968 29.51136104 34.86117817 31.98903415 34.875 34.5 C34.87113281 35.20253906 34.86726562 35.90507812 34.86328125 36.62890625 C34.55609069 40.10428808 34.55609069 40.10428808 36 43 C39.93021825 43.28106448 43.87343111 43.23183715 47.8125 43.25 C48.91916016 43.270625 50.02582031 43.29125 51.16601562 43.3125 C52.23142578 43.31765625 53.29683594 43.3228125 54.39453125 43.328125 C55.86176636 43.34214355 55.86176636 43.34214355 57.35864258 43.35644531 C60.42714753 42.94235739 61.76991273 42.11069261 64 40 C64.91187751 37.92619539 64.91187751 37.92619539 65.125 35.625 C65.31449219 34.49964844 65.31449219 34.49964844 65.5078125 33.3515625 C64.86074316 30.35513371 63.49589806 28.81475794 61.07226562 26.97705078 C56.70937333 24.91999435 51.90580761 25.45575953 47.1875 25.625 C46.12595703 25.63917969 45.06441406 25.65335937 43.97070312 25.66796875 C39.13479336 25.32510109 39.13479336 25.32510109 35 27 Z " fill="#000000" transform="translate(760,397)"/>
<path d="M0 0 C10.89 0 21.78 0 33 0 C33.33 11.55 33.66 23.1 34 35 C35.98 33.68 37.96 32.36 40 31 C48.26867694 26.57683549 59.96608709 26.42698795 68.921875 28.76171875 C71.10518304 29.68852569 73.01877617 30.70164697 75 32 C75.928125 32.598125 76.85625 33.19625 77.8125 33.8125 C84.94620096 40.94620096 86.06791084 49.8282931 86.22705078 59.55126953 C86.22673804 61.99514007 86.21567357 64.43902677 86.1953125 66.8828125 C86.1924826 68.17822968 86.18965271 69.47364685 86.18673706 70.80831909 C86.17917608 74.21789565 86.15959446 77.6272962 86.1373291 81.0368042 C86.11670627 84.52971983 86.10759019 88.02266532 86.09765625 91.515625 C86.07740631 98.3439044 86.03824186 105.17170327 86 112 C75.44 112 64.88 112 54 112 C53.96261719 108.30425781 53.92523438 104.60851562 53.88671875 100.80078125 C53.8405021 97.21974787 53.78926879 93.63881895 53.73754883 90.05786133 C53.70430343 87.56997022 53.67627034 85.08200376 53.65356445 82.59399414 C53.6200123 79.01676332 53.56769408 75.44022281 53.51171875 71.86328125 C53.50532883 70.75165115 53.4989389 69.64002106 53.49235535 68.4947052 C53.47256119 67.45400375 53.45276703 66.41330231 53.43237305 65.34106445 C53.41571846 63.97205742 53.41571846 63.97205742 53.39872742 62.57539368 C52.91271464 59.43622097 51.85662422 57.56183466 50 55 C46.54817781 52.69878521 44.94319628 52.89018404 40.9375 53.5234375 C38.34084692 54.1621304 36.81767099 55.03691533 35 57 C33.99777967 60.05809645 33.85019391 62.93166549 33.79467773 66.13574219 C33.77473251 67.15649841 33.75478729 68.17725464 33.73423767 69.22894287 C33.70916893 70.87131927 33.70916893 70.87131927 33.68359375 72.546875 C33.66281265 73.6732135 33.64203156 74.799552 33.62062073 75.96002197 C33.55525667 79.55661949 33.49630115 83.15328977 33.4375 86.75 C33.3943023 89.1888096 33.3506876 91.62761184 33.30664062 94.06640625 C33.19880437 100.04419735 33.0996326 106.02204399 33 112 C22.11 112 11.22 112 0 112 C0 75.04 0 38.08 0 0 Z " fill="#000000" transform="translate(346,392)"/>
<path d="M0 0 C1.04808838 0.00757324 2.09617676 0.01514648 3.17602539 0.02294922 C17.2882885 0.32170222 28.97704484 3.78486272 39 14.125 C47.47900804 24.39423943 47.1875 36.72199992 47.1875 49.4375 C27.3875 49.4375 7.5875 49.4375 -12.8125 49.4375 C-11.75895444 57.90537976 -11.75895444 57.90537976 -8.375 60.9375 C-1.98281733 64.67926547 5.13464144 63.88424022 12.1875 62.4375 C12.39246094 61.79941406 12.59742188 61.16132813 12.80859375 60.50390625 C13.07800781 59.67761719 13.34742188 58.85132813 13.625 58 C13.89183594 57.17628906 14.15867187 56.35257812 14.43359375 55.50390625 C15.1875 53.4375 15.1875 53.4375 16.1875 52.4375 C18.39400656 52.33737599 20.60372386 52.3066882 22.8125 52.3046875 C23.47459473 52.30373077 24.13668945 52.30277405 24.81884766 52.30178833 C26.22102961 52.30110674 27.6232147 52.30295958 29.02539062 52.30712891 C31.17845713 52.31247754 33.33131502 52.3071833 35.484375 52.30078125 C36.84375046 52.30144204 38.2031258 52.30272321 39.5625 52.3046875 C41.43035156 52.30637939 41.43035156 52.30637939 43.3359375 52.30810547 C46.1875 52.4375 46.1875 52.4375 47.1875 53.4375 C47.43163163 62.22623873 44.45214026 68.76477971 38.6875 75.25 C37.45 76.3328125 37.45 76.3328125 36.1875 77.4375 C35.506875 78.118125 34.82625 78.79875 34.125 79.5 C21.19821784 88.02617547 2.47229489 88.11663797 -12.3828125 85.90625 C-14.95211267 85.2328152 -17.34997052 84.42767794 -19.8125 83.4375 C-20.94945312 83.05464844 -20.94945312 83.05464844 -22.109375 82.6640625 C-30.5661625 79.48547685 -38.76215106 72.53819789 -42.8125 64.4375 C-48.0514552 52.08363185 -47.6019181 35.61952732 -43.0859375 23.14453125 C-41.17327523 19.07865715 -38.8241003 15.75438582 -35.8125 12.4375 C-35.214375 11.715625 -34.61625 10.99375 -34 10.25 C-24.16601631 2.10184208 -12.47700049 -0.12701802 0 0 Z M-10.75 26.375 C-13.09180019 29.23684115 -13.09180019 29.23684115 -12.8125 32.4375 C-3.9025 32.4375 5.0075 32.4375 14.1875 32.4375 C12.18297428 24.55124185 12.18297428 24.55124185 7.8125 22.4375 C1.07653833 20.57930368 -5.84362551 20.77367162 -10.75 26.375 Z " fill="#000000" transform="translate(482.8125,419.5625)"/>
<path d="M0 0 C1.36429543 1.19470769 2.70039271 2.42272754 4 3.6875 C4.57363281 4.2340625 5.14726563 4.780625 5.73828125 5.34375 C14.65057925 14.72046056 15.9541506 28.23174754 16 40.6875 C15 41.6875 15 41.6875 12.60191345 41.80775452 C11.53824051 41.80553391 10.47456757 41.80331329 9.37866211 41.80102539 C8.17749252 41.80094986 6.97632294 41.80087433 5.73875427 41.80079651 C4.4314888 41.79563522 3.12422333 41.79047394 1.77734375 41.78515625 C0.43355868 41.78329198 -0.91022707 41.78186812 -2.25401306 41.78086853 C-5.79682277 41.77704402 -9.3395917 41.76721432 -12.88238525 41.75616455 C-16.49515227 41.74594899 -20.10792584 41.7413706 -23.72070312 41.73632812 C-30.8138188 41.72559198 -37.90690674 41.70851636 -45 41.6875 C-44.60157441 43.29629422 -44.18046843 44.89948173 -43.75 46.5 C-43.51796875 47.39332031 -43.2859375 48.28664063 -43.046875 49.20703125 C-41.81912644 52.11606235 -40.68546164 53.08732831 -38 54.6875 C-32.84456117 56.40597961 -27.45974013 56.06180828 -22.125 55.25 C-18.85608268 53.11681949 -18.85608268 53.11681949 -16 44.6875 C-5.77 44.6875 4.46 44.6875 15 44.6875 C15 53.09410951 13.88811017 59.30120081 8.6875 66 C-2.56295952 77.25045952 -16.66331247 78.92351744 -31.95361328 78.94067383 C-38.99406596 78.86426676 -45.3312595 78.05738299 -52 75.6875 C-53.216875 75.275 -54.43375 74.8625 -55.6875 74.4375 C-65.80691207 69.09139551 -72.78327318 62.18787191 -76.375 51.25 C-79.89884199 37.40633503 -78.98037155 23.64431741 -73.04296875 10.58203125 C-67.86778624 2.11178871 -57.48029336 -4.2585614 -48.078125 -6.72265625 C-32.59737713 -9.40636254 -13.12987428 -9.58826346 0 0 Z M-39 14.6875 C-39 15.3475 -39 16.0075 -39 16.6875 C-39.99 17.0175 -40.98 17.3475 -42 17.6875 C-42 18.3475 -42 19.0075 -42 19.6875 C-42.66 19.6875 -43.32 19.6875 -44 19.6875 C-44.33 21.3375 -44.66 22.9875 -45 24.6875 C-36.09 24.6875 -27.18 24.6875 -18 24.6875 C-19.77156362 18.54956929 -19.77156362 18.54956929 -24 14.6875 C-29.10420623 13.44304591 -33.87582482 13.50499804 -39 14.6875 Z " fill="#000000" transform="translate(939,427.3125)"/>
<path d="M0 0 C7.47278154 6.03151573 11.90634931 14.82229557 13.16015625 24.3203125 C13.45930296 29.85452655 13.41015625 35.4030193 13.41015625 40.9453125 C-6.38984375 41.2753125 -26.18984375 41.6053125 -46.58984375 41.9453125 C-45.59984375 44.5853125 -44.60984375 47.2253125 -43.58984375 49.9453125 C-43.09484375 51.9253125 -43.09484375 51.9253125 -42.58984375 53.9453125 C-36.01351754 55.06468717 -29.695937 55.86563643 -23.21484375 53.9453125 C-19.65027192 51.59730241 -19.65027192 51.59730241 -17.58984375 43.9453125 C-7.68984375 43.9453125 2.21015625 43.9453125 12.41015625 43.9453125 C13.7301742 50.54540223 13.36443532 55.76021343 9.78515625 61.59375 C8.0818429 63.84354305 6.42957489 65.97352166 4.41015625 67.9453125 C3.75015625 67.9453125 3.09015625 67.9453125 2.41015625 67.9453125 C2.41015625 68.6053125 2.41015625 69.2653125 2.41015625 69.9453125 C-1.03407919 72.35943716 -4.54666656 73.76903579 -8.52734375 75.0703125 C-10.02587891 75.56917969 -10.02587891 75.56917969 -11.5546875 76.078125 C-24.56657066 79.7958059 -40.88318474 79.56411367 -53.58984375 74.9453125 C-54.40582031 74.65527344 -55.22179688 74.36523438 -56.0625 74.06640625 C-61.26653093 71.9900066 -65.83850879 69.1670721 -69.58984375 64.9453125 C-69.58984375 64.2853125 -69.58984375 63.6253125 -69.58984375 62.9453125 C-70.57984375 62.6153125 -71.56984375 62.2853125 -72.58984375 61.9453125 C-80.50400306 50.74337188 -80.57797868 36.11152966 -79.02734375 23.0078125 C-77.58938399 15.17552105 -73.71673538 7.32453941 -67.65234375 2.0078125 C-66.64171875 1.3271875 -65.63109375 0.6465625 -64.58984375 -0.0546875 C-64.01878906 -0.48136719 -63.44773437 -0.90804688 -62.859375 -1.34765625 C-46.09647115 -13.13353298 -16.41019308 -11.28643495 0 0 Z M-43.96484375 17.3203125 C-45.82675078 20.030419 -45.82675078 20.030419 -46.58984375 23.9453125 C-37.67984375 23.9453125 -28.76984375 23.9453125 -19.58984375 23.9453125 C-20.72322541 18.08165072 -20.72322541 18.08165072 -24.58984375 13.9453125 C-31.41064641 12.10345812 -38.7446815 12.10015025 -43.96484375 17.3203125 Z " fill="#000000" transform="translate(1117.58984375,428.0546875)"/>
<path d="M0 0 C3.79164991 -0.02943124 7.58326979 -0.0469419 11.375 -0.0625 C12.43589844 -0.07087891 13.49679687 -0.07925781 14.58984375 -0.08789062 C21.12672204 -0.1079424 27.51174824 0.1941922 34 1 C37.57812895 11.91576665 40.65630933 22.9308123 43.58813477 34.03662109 C44.01437134 35.64657959 44.01437134 35.64657959 44.44921875 37.2890625 C44.70018311 38.24506348 44.95114746 39.20106445 45.2097168 40.18603516 C46.04498268 43.16017001 47.00131058 46.07709878 48 49 C51.84241223 38.03967659 54.85491254 27.06254804 57.52783203 15.77001953 C58.05459081 13.55362108 58.58964168 11.33933419 59.125 9.125 C59.28363525 8.44058838 59.44227051 7.75617676 59.60571289 7.05102539 C60.77446884 2.22553116 60.77446884 2.22553116 63 0 C65.98095703 -0.22705078 65.98095703 -0.22705078 69.7578125 -0.1953125 C70.75238968 -0.19106766 70.75238968 -0.19106766 71.76705933 -0.18673706 C73.88655583 -0.17553435 76.00563104 -0.15043051 78.125 -0.125 C79.56119182 -0.11497028 80.99739025 -0.10584441 82.43359375 -0.09765625 C85.95586628 -0.075595 89.47789203 -0.04106494 93 0 C93.84365782 3.70449389 94.20826691 5.42946046 92.25 8.75 C90.24889058 12.18474005 89.04927585 15.68025586 87.83007812 19.44433594 C83.94096075 31.41824201 79.74839967 43.31761823 75.14453125 55.03515625 C73.86986339 58.33711155 72.68047131 61.66324982 71.5 65 C58.25264963 102.22464186 58.25264963 102.22464186 41 112 C40.43152344 112.36222656 39.86304688 112.72445312 39.27734375 113.09765625 C35.81904927 114.46792387 32.30015503 114.565665 28.625 114.75 C27.43801514 114.81465454 27.43801514 114.81465454 26.22705078 114.88061523 C18.96338567 115.17907204 12.14369725 114.3896903 5 113 C3.80399099 108.50832172 4.0814296 104.26730207 4.4375 99.6875 C4.48970703 98.94693359 4.54191406 98.20636719 4.59570312 97.44335938 C4.72450152 95.62847291 4.86143262 93.81416675 5 92 C6.08539062 91.95101562 7.17078125 91.90203125 8.2890625 91.8515625 C9.73439784 91.77648014 11.17970919 91.70093472 12.625 91.625 C13.33785156 91.5940625 14.05070313 91.563125 14.78515625 91.53125 C19.13347237 91.29189315 22.99456453 90.86439189 27 89 C29.54157177 85.54403838 29.17322127 82.64475178 28.58984375 78.57421875 C27.57781982 74.15750503 25.71936092 70.15872344 23.88330078 66.03076172 C21.99017058 61.67834132 20.22760177 57.27052287 18.4375 52.875 C18.06173828 51.9569458 17.68597656 51.0388916 17.29882812 50.09301758 C10.2737675 32.92252681 10.2737675 32.92252681 8.0625 26.625 C4.53627721 16.51635591 4.53627721 16.51635591 -0.2109375 6.96484375 C-1.26067263 4.35089934 -0.62266906 2.69463497 0 0 Z " fill="#000000" transform="translate(951,421)"/>
<path d="M0 0 C4.39656173 -0.02465504 8.7930872 -0.04283842 13.18969727 -0.05493164 C14.68644918 -0.05997121 16.18319616 -0.06680287 17.67993164 -0.07543945 C19.82699807 -0.08752159 21.97399962 -0.09323191 24.12109375 -0.09765625 C26.06133423 -0.10551147 26.06133423 -0.10551147 28.04077148 -0.11352539 C31 0 31 0 32 1 C32.1124513 2.63028906 32.15676675 4.2653379 32.17358398 5.89941406 C32.18707382 6.94429993 32.20056366 7.98918579 32.21446228 9.06573486 C32.22490067 10.20419861 32.23533905 11.34266235 32.24609375 12.515625 C32.27903921 14.90495148 32.31225073 17.29427431 32.34570312 19.68359375 C32.39309924 23.46693332 32.43750269 27.2502588 32.47680664 31.03369141 C32.51653187 34.67366464 32.56808649 38.31332437 32.62109375 41.953125 C32.6295079 43.08349182 32.63792206 44.21385864 32.64659119 45.378479 C32.67155418 46.96472076 32.67155418 46.96472076 32.69702148 48.58300781 C32.70732895 49.51042786 32.71763641 50.4378479 32.72825623 51.39337158 C33.02392366 54.22948122 33.82609019 56.413692 35 59 C38.94076365 59.866968 41.39665883 60.20884887 45.25 58.875 C48.49500643 56.66249562 49.42393285 55.60778261 51 52 C51.46383377 48.13299019 51.46491346 44.28198108 51.4765625 40.390625 C51.49993179 38.70679718 51.49993179 38.70679718 51.52377319 36.98895264 C51.57125643 33.40930852 51.59905551 29.82985957 51.625 26.25 C51.66144355 22.6559945 51.70198858 19.06210082 51.74765015 15.46820068 C51.77496132 13.23246803 51.7962755 10.99665296 51.81118774 8.76080322 C51.82658096 7.25353668 51.82658096 7.25353668 51.84228516 5.71582031 C51.84878082 4.82711243 51.85527649 3.93840454 51.86196899 3.02276611 C52 1 52 1 53 0 C54.3473456 -0.09911078 55.69979678 -0.13079761 57.05078125 -0.1328125 C57.89576172 -0.13410156 58.74074219 -0.13539063 59.61132812 -0.13671875 C60.50271484 -0.13285156 61.39410156 -0.12898438 62.3125 -0.125 C63.16134766 -0.12886719 64.01019531 -0.13273437 64.88476562 -0.13671875 C71.68566471 -0.12651485 78.16661333 0.43055111 85 1 C85 28.06 85 55.12 85 83 C76.09 83 67.18 83 58 83 C57.34 80.36 56.68 77.72 56 75 C53.37098712 76.52206009 51.15634036 77.84365964 49 80 C39.01855685 84.65236757 29.05736669 87.04700667 18.109375 84.265625 C9.85413878 81.25023932 5.04901805 76.80169765 0.98046875 69.0859375 C-1.70418381 60.63623423 -1.14902424 51.18213222 -1.1328125 42.40234375 C-1.13376923 41.24626114 -1.13472595 40.09017853 -1.13571167 38.89906311 C-1.13638743 36.47803696 -1.13457566 34.05700893 -1.13037109 31.63598633 C-1.12496992 27.91678881 -1.13035906 24.19770965 -1.13671875 20.47851562 C-1.13605872 18.1197914 -1.13477913 15.76106725 -1.1328125 13.40234375 C-1.13584885 11.73062355 -1.13584885 11.73062355 -1.13894653 10.02513123 C-1.13579437 8.99968704 -1.13264221 7.97424286 -1.12939453 6.91772461 C-1.12859894 6.01380478 -1.12780334 5.10988495 -1.12698364 4.17857361 C-1 2 -1 2 0 0 Z " fill="#000000" transform="translate(535,421)"/>
<path d="M0 0 C4.5270123 4.33018568 6.65077946 8.96690003 8 15 C8 16.32 8 17.64 8 19 C1.14155397 19.91917318 -5.46311872 20.11622002 -12.375 19.875 C-13.35855469 19.8646875 -14.34210937 19.854375 -15.35546875 19.84375 C-18.00295934 19.74958481 -20.4238966 19.62036776 -23 19 C-24.9765625 16.5078125 -24.9765625 16.5078125 -26 14 C-31.24118425 12.25293858 -36.68833136 12.67208284 -42 14 C-41.36335319 16.01386453 -41.36335319 16.01386453 -40 18 C-37.66457655 18.97931247 -37.66457655 18.97931247 -34.87109375 19.4140625 C-33.83533203 19.61773437 -32.79957031 19.82140625 -31.73242188 20.03125 C-30.64509766 20.2271875 -29.55777344 20.423125 -28.4375 20.625 C-26.31112427 21.03347096 -24.18482103 21.4423195 -22.05859375 21.8515625 C-21.03016357 22.04548584 -20.0017334 22.23940918 -18.94213867 22.43920898 C-8.67513822 24.39616692 0.11621873 26.53545842 6.84765625 35.1875 C10.27805335 40.58310764 10.67593055 46.7918379 10 53 C8.23577731 60.79091041 5.00615718 67.2731453 -1.80859375 71.8359375 C-16.33906189 79.55443929 -36.72721394 80.69126187 -52.40234375 76 C-56.7729284 74.31748922 -60.91570255 72.28612225 -65 70 C-65 69.34 -65 68.68 -65 68 C-66.32 67.67 -67.64 67.34 -69 67 C-69.33 65.68 -69.66 64.36 -70 63 C-70.66 63 -71.32 63 -72 63 C-74.75532834 58.20812462 -75.63176357 54.43148733 -76 49 C-75 48 -75 48 -72.13256836 47.88647461 C-70.88096924 47.89171143 -69.62937012 47.89694824 -68.33984375 47.90234375 C-67.34314415 47.90446617 -67.34314415 47.90446617 -66.3263092 47.90663147 C-64.19666101 47.91224482 -62.06711661 47.92479946 -59.9375 47.9375 C-58.49674631 47.94251329 -57.05599097 47.94707649 -55.61523438 47.95117188 C-52.07678898 47.96221855 -48.53840461 47.97949208 -45 48 C-44.87858643 48.78802002 -44.75717285 49.57604004 -44.63208008 50.38793945 C-44.23290584 53.1591683 -44.23290584 53.1591683 -41.88671875 54.79296875 C-38.35196836 56.27096316 -35.6354 56.36486849 -31.8125 56.3125 C-30.58144531 56.30863281 -29.35039063 56.30476563 -28.08203125 56.30078125 C-24.8957709 56.31915873 -24.8957709 56.31915873 -23 54 C-23 53.01 -23 52.02 -23 51 C-26.14877746 49.23428254 -29.03632434 48.4695976 -32.578125 47.81640625 C-33.65707031 47.61080078 -34.73601563 47.40519531 -35.84765625 47.19335938 C-38.10007974 46.77571713 -40.35268179 46.3590366 -42.60546875 45.94335938 C-54.14393641 43.74130936 -64.23432704 40.70180017 -71.58203125 30.88671875 C-74.75358444 24.43003057 -74.08327168 15.01576471 -72.2265625 8.1328125 C-68.77949514 1.06754677 -62.43157327 -3.19525784 -55.3046875 -6.09765625 C-38.26253947 -10.98307202 -14.7373396 -10.62177864 0 0 Z " fill="#000000" transform="translate(700,428)"/>
<path d="M0 0 C1.08990234 -0.01160156 2.17980469 -0.02320313 3.30273438 -0.03515625 C14.73577182 0.00560324 25.99985315 1.93898207 35.0625 9.375 C39.76216744 15.09256777 41.20205084 19.97880559 41.0625 27.375 C37.29737702 28.27318596 33.96672547 28.4321181 30.10546875 28.25390625 C28.43774414 28.18139648 28.43774414 28.18139648 26.73632812 28.10742188 C25.58583984 28.05134766 24.43535156 27.99527344 23.25 27.9375 C22.08017578 27.88529297 20.91035156 27.83308594 19.70507812 27.77929688 C16.82392726 27.64993908 13.94315085 27.51498535 11.0625 27.375 C10.77632812 26.74078125 10.49015625 26.1065625 10.1953125 25.453125 C9.20584399 23.21422781 9.20584399 23.21422781 6.9375 22.125 C1.60622555 20.73423275 -3.60376036 21.04156509 -8.9375 22.375 C-8.9375 23.695 -8.9375 25.015 -8.9375 26.375 C-8.23254395 26.51599121 -7.52758789 26.65698242 -6.80126953 26.80224609 C-5.81755371 26.99898926 -4.83383789 27.19573242 -3.8203125 27.3984375 C-2.7375 27.615 -1.6546875 27.8315625 -0.5390625 28.0546875 C0.60820313 28.28414063 1.75546875 28.51359375 2.9375 28.75 C4.04609375 28.97171875 5.1546875 29.1934375 6.296875 29.421875 C8.50227925 29.86295585 10.707361 30.30565237 12.91210938 30.75 C14.92125925 31.14859142 16.93283317 31.53527801 18.94726562 31.90625 C27.58418672 33.51728191 35.85014763 36.88334779 41.0625 44.375 C44.52095943 52.2609558 43.68365445 61.11118167 41.0390625 69.08203125 C38.60786796 74.79047603 34.47527687 78.42257625 29.0625 81.375 C11.86428664 88.02245248 -7.82922981 89.27568537 -25.15576172 82.20507812 C-32.38495232 78.83713512 -37.35128242 73.7364936 -41.1953125 66.84375 C-41.9375 64.375 -41.9375 64.375 -41.9375 56.375 C-32.0375 56.375 -22.1375 56.375 -11.9375 56.375 C-10.9475 58.355 -9.9575 60.335 -8.9375 62.375 C-5.66413909 64.89130607 -2.33135587 64.6123955 1.6875 64.5625 C3.40839844 64.55283203 3.40839844 64.55283203 5.1640625 64.54296875 C8.0017553 64.56983817 8.0017553 64.56983817 10.0625 63.375 C10.71805119 60.84766765 10.71805119 60.84766765 11.0625 58.375 C10.36278076 58.23924561 9.66306152 58.10349121 8.94213867 57.96362305 C5.71058508 57.33414805 2.48030348 56.69835782 -0.75 56.0625 C-1.85021484 55.84916016 -2.95042969 55.63582031 -4.08398438 55.41601562 C-30.62587978 50.17027228 -30.62587978 50.17027228 -36.9375 41.875 C-41.0788437 35.22892608 -40.80043405 26.70564248 -39.25 19.1875 C-37.44764727 13.06443868 -34.29375635 8.90983162 -28.8125 5.625 C-19.41616013 1.03130146 -10.37073792 -0.11000193 0 0 Z " fill="#000000" transform="translate(1173.9375,419.625)"/>
<path d="M0 0 C0.99 0 1.98 0 3 0 C2.625 2.9375 2.625 2.9375 2 6 C1.01 6.495 1.01 6.495 0 7 C-0.42985694 9.32353985 -0.42985694 9.32353985 -0.5625 12 C-0.90381679 16.90381679 -0.90381679 16.90381679 -2 18 C-2.65835711 21.32940598 -3.24441028 24.66315645 -3.80664062 28.00976562 C-4.44685167 31.63541679 -5.07708346 34.82843636 -7 38 C-7.33 38 -7.66 38 -8 38 C-10.2414805 25.89600528 -5.93864172 10.72254754 0 0 Z " fill="#0B0B0B" transform="translate(109,396)"/>
<path d="M0 0 C0.495 1.485 0.495 1.485 1 3 C-6.26 3 -13.52 3 -21 3 C-21 3.66 -21 4.32 -21 5 C-29.415 5.495 -29.415 5.495 -38 6 C-36.68 5.34 -35.36 4.68 -34 4 C-33.21238281 3.47792969 -32.42476562 2.95585937 -31.61328125 2.41796875 C-23.06684473 -2.21933537 -9.6312681 -0.11127267 0 0 Z " fill="#0F0F0F" transform="translate(229,323)"/>
<path d="M0 0 C0 0.99 0 1.98 0 3 C-2.33605534 2.681447 -4.66772528 2.34480473 -7 2 C-8.02351562 1.85433594 -9.04703125 1.70867187 -10.1015625 1.55859375 C-11.18179688 1.39488281 -12.26203125 1.23117187 -13.375 1.0625 C-14.41398438 0.90910156 -15.45296875 0.75570313 -16.5234375 0.59765625 C-17.34070313 0.40042969 -18.15796875 0.20320313 -19 0 C-19.33 -0.66 -19.66 -1.32 -20 -2 C-12.90929107 -3.32950792 -6.68903637 -3.1354858 0 0 Z " fill="#0F0F0F" transform="translate(255,328)"/>
<path d="M0 0 C0.84401367 -0.00193359 1.68802734 -0.00386719 2.55761719 -0.00585938 C3.45899414 -0.00134766 4.36037109 0.00316406 5.2890625 0.0078125 C6.1955957 0.00974609 7.10212891 0.01167969 8.03613281 0.01367188 C14.36919766 0.05445727 20.62680035 0.32527424 26.9140625 1.1328125 C26.9140625 1.4628125 26.9140625 1.7928125 26.9140625 2.1328125 C17.0140625 2.1328125 7.1140625 2.1328125 -3.0859375 2.1328125 C-3.0859375 3.7828125 -3.0859375 5.4328125 -3.0859375 7.1328125 C-3.7459375 7.1328125 -4.4059375 7.1328125 -5.0859375 7.1328125 C-5.12848106 5.13326504 -5.12674533 3.13239614 -5.0859375 1.1328125 C-3.5495512 -0.4035738 -2.13746461 0.00316126 0 0 Z " fill="#141414" transform="translate(592.0859375,420.8671875)"/>
<path d="M0 0 C0.66 7.59 1.32 15.18 2 23 C1.34 21.68 0.68 20.36 0 19 C-0.99 18.67 -1.98 18.34 -3 18 C-3 12.39 -3 6.78 -3 1 C-1 0 -1 0 0 0 Z " fill="#121212" transform="translate(200,460)"/>
<path d="M0 0 C8.91 0 17.82 0 27 0 C26.67 0.66 26.34 1.32 26 2 C22.56603605 2.96763465 19.46162914 3.07456848 15.91796875 2.87890625 C14.98662109 2.83056641 14.05527344 2.78222656 13.09570312 2.73242188 C12.13599609 2.67634766 11.17628906 2.62027344 10.1875 2.5625 C9.20845703 2.51029297 8.22941406 2.45808594 7.22070312 2.40429688 C4.8134391 2.27512661 2.40664362 2.14018357 0 2 C0 1.34 0 0.68 0 0 Z " fill="#0D0D0D" transform="translate(171,455)"/>
<path d="M0 0 C-0.33 0.99 -0.66 1.98 -1 3 C-1.66 3 -2.32 3 -3 3 C-3.268125 3.57234375 -3.53625 4.1446875 -3.8125 4.734375 C-5.04132636 7.07884634 -6.42522176 9.12404938 -8 11.25 C-8.515625 11.95640625 -9.03125 12.6628125 -9.5625 13.390625 C-10.036875 13.92171875 -10.51125 14.4528125 -11 15 C-11.66 15 -12.32 15 -13 15 C-13.33 15.99 -13.66 16.98 -14 18 C-14.66 18 -15.32 18 -16 18 C-15.1875 15.5625 -15.1875 15.5625 -14 13 C-13.01 12.67 -12.02 12.34 -11 12 C-10.85433594 11.40703125 -10.70867187 10.8140625 -10.55859375 10.203125 C-9.79935149 7.20863105 -8.25567617 5.89161868 -6.0625 3.75 C-5.35222656 3.04359375 -4.64195312 2.3371875 -3.91015625 1.609375 C-2 0 -2 0 0 0 Z " fill="#0C0C0C" transform="translate(140,357)"/>
<path d="M0 0 C1 3 1 3 -0.65234375 6.35546875 C-1.40377702 7.63889017 -2.16596501 8.91606134 -2.9375 10.1875 C-3.51661133 11.16879883 -3.51661133 11.16879883 -4.10742188 12.16992188 C-5.06253088 13.78535316 -6.03010066 15.39340525 -7 17 C-7.66 16.34 -8.32 15.68 -9 15 C-8.76365874 10.62768671 -6.95544646 8.13456443 -4 5 C-3.34 5 -2.68 5 -2 5 C-1.855625 4.360625 -1.71125 3.72125 -1.5625 3.0625 C-1 1 -1 1 0 0 Z " fill="#0C0C0C" transform="translate(121,378)"/>
<path d="M0 0 C5.28 0 10.56 0 16 0 C16.33 0.99 16.66 1.98 17 3 C11.39 2.67 5.78 2.34 0 2 C0 1.34 0 0.68 0 0 Z " fill="#090909" transform="translate(213,323)"/>
<path d="M0 0 C0.66 0.33 1.32 0.66 2 1 C1.67 1.66 1.34 2.32 1 3 C0.34 3 -0.32 3 -1 3 C-1 3.66 -1 4.32 -1 5 C-3.96187272 7.17204 -6.50685991 8.83561997 -10 10 C-10 7 -10 7 -8.375 5 C-5.71985128 2.76408529 -3.20545049 1.32399042 0 0 Z " fill="#0D0D0D" transform="translate(154,344)"/>
<path d="M0 0 C2.475 0.495 2.475 0.495 5 1 C6.42857143 9.57142857 6.42857143 9.57142857 4 13 C3.814375 11.6078125 3.814375 11.6078125 3.625 10.1875 C3.18466918 6.86074765 3.18466918 6.86074765 1 4 C0.375 1.8125 0.375 1.8125 0 0 Z " fill="#0A0A0A" transform="translate(329,398)"/>
<path d="M0 0 C1.5625 1.0625 1.5625 1.0625 3 3 C2.6875 6.6875 2.6875 6.6875 2 10 C1.01 10.33 0.02 10.66 -1 11 C-2.41687119 6.74938644 -1.19320039 4.28148375 0 0 Z " fill="#070707" transform="translate(336,466)"/>
<path d="M0 0 C2.72869407 0.03287583 5.2966618 0.56397771 8 1 C8 1.33 8 1.66 8 2 C3.07262981 3.97094808 -0.78020872 4.1799928 -6 4 C-5.38125 3.71125 -4.7625 3.4225 -4.125 3.125 C-1.86674235 2.06279958 -1.86674235 2.06279958 0 0 Z " fill="#171717" transform="translate(197,325)"/>
<path d="M0 0 C0.66 0.33 1.32 0.66 2 1 C2 3.31 2 5.62 2 8 C0.68 7.67 -0.64 7.34 -2 7 C-1.34 4.69 -0.68 2.38 0 0 Z " fill="#0C0C0C" transform="translate(331,482)"/>
<path d="M0 0 C2 2 2 2 2.125 4.625 C2.08375 5.40875 2.0425 6.1925 2 7 C1.01 6.67 0.02 6.34 -1 6 C-1.042721 4.33388095 -1.04063832 2.66617115 -1 1 C-0.67 0.67 -0.34 0.34 0 0 Z " fill="#0D0D0D" transform="translate(110,486)"/>
<path d="M0 0 C2.97 0.495 2.97 0.495 6 1 C5.01 1.33 4.02 1.66 3 2 C3 2.66 3 3.32 3 4 C1.68 3.67 0.36 3.34 -1 3 C-0.67 2.01 -0.34 1.02 0 0 Z " fill="#0C0C0C" transform="translate(178,330)"/>
</svg>
