<?xml version="1.0" encoding="UTF-8"?>
<svg version="1.1" xmlns="http://www.w3.org/2000/svg" width="2245" height="1587">
<path d="M0 0 C740.85 0 1481.7 0 2245 0 C2245 523.71 2245 1047.42 2245 1587 C1504.15 1587 763.3 1587 0 1587 C0 1063.29 0 539.58 0 0 Z " fill="#FEFEFE" transform="translate(0,0)"/>
<path d="M0 0 C28.6288735 -0.54396231 57.51284137 1.07977768 85.86669922 5.07080078 C86.84832031 5.20711914 87.82994141 5.3434375 88.84130859 5.48388672 C113.38165243 8.96781094 138.24581092 13.47103672 161.86669922 21.07080078 C163.72429081 21.59473687 165.58194966 22.11846398 167.44140625 22.63574219 C189.69672135 28.90615398 211.66846915 36.86762598 232.86669922 46.07080078 C233.67365234 46.41788086 234.48060547 46.76496094 235.31201172 47.12255859 C273.45094984 63.60140043 309.53715813 84.26446295 342.86669922 109.07080078 C343.96288553 109.87962207 345.05922622 110.68823421 346.15576172 111.49658203 C356.58388128 119.24200593 366.89183451 127.09427377 376.44873047 135.90283203 C378.97382308 138.16684883 381.58668258 140.27367986 384.24169922 142.38330078 C388.96244124 146.19595099 393.24511448 150.28936183 397.45605469 154.64624023 C400.1124656 157.38143905 402.84063171 159.94150138 405.73779297 162.42236328 C410.02798805 166.13365394 413.88970677 170.16217971 417.74169922 174.32080078 C418.43787354 175.0673291 419.13404785 175.81385742 419.85131836 176.58300781 C421.86090804 178.74151641 423.86449734 180.90544108 425.86669922 183.07080078 C426.63844482 183.9007959 426.63844482 183.9007959 427.42578125 184.74755859 C433.52165376 191.30638151 439.26411625 198.0881362 444.86669922 205.07080078 C445.77895211 206.19100595 446.69173725 207.31077783 447.60498047 208.43017578 C474.73537256 241.82948803 497.88369604 277.9473853 516.68237305 316.66186523 C517.53266745 318.39137562 518.39901925 320.11302639 519.27563477 321.8293457 C523.10259724 329.33653224 526.47842697 336.96502408 529.67919922 344.75830078 C529.93648804 345.38297241 530.19377686 346.00764404 530.4588623 346.65124512 C558.46400708 414.7708197 574.38483465 487.44397602 574.12744141 561.23168945 C574.11665324 564.89892904 574.12745495 568.56568454 574.14013672 572.23291016 C574.14790856 585.56379901 573.62260559 598.65444652 572.10723877 611.8991394 C571.76825201 614.95961094 571.51425257 618.02560971 571.26123047 621.09423828 C568.388311 653.36645025 563.05974987 687.2446837 552.85375977 718.06469727 C551.88290646 721.02144145 550.97094159 723.99057134 550.06982422 726.96923828 C540.86158556 756.95639927 529.28796516 785.72114692 515.86669922 814.07080078 C515.25640869 815.36147461 515.25640869 815.36147461 514.63378906 816.67822266 C504.94280423 837.00429974 493.41356681 856.38486392 480.86669922 875.07080078 C480.42261719 875.7348291 479.97853516 876.39885742 479.52099609 877.08300781 C472.63992949 887.33777721 465.37011248 897.26456126 457.86669922 907.07080078 C457.29483887 907.82216309 456.72297852 908.57352539 456.13378906 909.34765625 C449.75576142 917.71631181 443.34531341 925.89881433 436.14404297 933.57861328 C433.84260874 936.09716394 431.7309612 938.70652873 429.61669922 941.38330078 C424.35588094 947.91235204 418.39966975 953.70388815 412.41308594 959.55712891 C408.84020654 963.05442166 405.33189561 966.61442465 401.82763672 970.18017578 C387.32474499 984.88842378 387.32474499 984.88842378 379.49560547 991.00830078 C376.9866987 992.97665557 374.56297815 995.01445007 372.14379883 997.09057617 C342.68630279 1022.36908651 309.91874646 1043.57729867 275.86669922 1062.07080078 C274.9330957 1062.58352539 273.99949219 1063.09625 273.03759766 1063.62451172 C235.84770624 1083.98819648 194.73679534 1100.47102654 153.46826172 1110.21142578 C149.82385962 1111.08102281 146.22595836 1112.06608196 142.61669922 1113.07080078 C128.44925079 1116.85172939 114.00411944 1119.2694314 99.55419922 1121.69580078 C98.32757568 1121.90197021 97.10095215 1122.10813965 95.8371582 1122.32055664 C92.18315253 1122.92364496 88.52642688 1123.50351586 84.86669922 1124.07080078 C83.77566895 1124.24321289 82.68463867 1124.415625 81.56054688 1124.59326172 C57.63431888 1128.09366239 33.61770178 1128.37306391 9.49603271 1128.26641846 C6.3848368 1128.25551751 3.27368445 1128.25595301 0.16247272 1128.25655651 C-2.89631841 1128.25628175 -5.95508251 1128.25075468 -9.01386452 1128.24355507 C-10.44363007 1128.24043598 -11.87339858 1128.23841742 -13.30316734 1128.23766136 C-27.1580137 1128.22226491 -40.84884429 1127.60357335 -54.57080078 1125.61767578 C-55.57884766 1125.47557678 -56.58689453 1125.33347778 -57.62548828 1125.18707275 C-59.73644882 1124.88760958 -61.84696599 1124.58500456 -63.95703125 1124.27929688 C-67.09905168 1123.82574466 -70.24289962 1123.38708605 -73.38720703 1122.94970703 C-170.56126226 1109.17737243 -263.5158668 1068.53443635 -340.28125 1007.54101562 C-341.83149058 1006.310387 -343.38966243 1005.08975833 -344.94970703 1003.87158203 C-352.00567967 998.32677322 -358.73889953 992.40743015 -365.49169922 986.50097656 C-366.81538604 985.34777053 -368.14864936 984.20556187 -369.48486328 983.06689453 C-373.94745211 979.25624769 -378.0831952 975.16032611 -382.19970703 970.9831543 C-384.50611167 968.65373406 -386.80885075 966.41394987 -389.38330078 964.38330078 C-392.3740239 961.86837453 -394.76364507 959.13359784 -397.28955078 956.16455078 C-399.11432165 954.09235335 -401.02518824 952.17845737 -403.00830078 950.25830078 C-406.91593714 946.41066651 -410.30131108 942.24945317 -413.72705078 937.97314453 C-416.19554441 934.99572445 -418.7906455 932.19486607 -421.44580078 929.38330078 C-427.43335899 922.99018137 -432.55233037 916.02227425 -437.72509766 908.96679688 C-439.74337206 906.24940453 -441.8483521 903.6023376 -443.94580078 900.94580078 C-473.72220927 862.32728062 -496.38899317 818.9208654 -515.13330078 774.07080078 C-515.49262695 773.21325195 -515.85195313 772.35570312 -516.22216797 771.47216797 C-524.42413908 751.70001817 -531.42840466 730.95024028 -536.13330078 710.07080078 C-536.60904284 708.18362481 -537.08496048 706.29648089 -537.56884766 704.41137695 C-538.26142503 701.69934367 -538.9292441 698.981488 -539.59472656 696.26269531 C-539.95882218 694.78089545 -540.32710017 693.30011796 -540.69921875 691.8203125 C-547.71512216 663.73917369 -551.67144749 634.88027205 -554.13330078 606.07080078 C-554.22062973 605.07445114 -554.30795868 604.0781015 -554.39793396 603.05155945 C-555.02204628 595.53285603 -555.30552481 588.07085901 -555.33642578 580.52783203 C-555.34339478 579.37270111 -555.35036377 578.21757019 -555.35754395 577.0274353 C-555.37485327 573.3126863 -555.38126579 569.59808846 -555.38330078 565.88330078 C-555.38430786 564.61169098 -555.38531494 563.34008118 -555.38635254 562.02993774 C-555.37556445 541.8706431 -554.70446099 522.06930619 -552.13330078 502.07080078 C-551.9728125 500.8162207 -551.81232422 499.56164062 -551.64697266 498.26904297 C-550.71669605 491.1715797 -549.68790326 484.0939593 -548.58447266 477.02148438 C-548.19179284 474.45334138 -547.83202346 471.88468655 -547.49267578 469.30908203 C-539.39735879 409.8994756 -516.80454324 349.40874423 -488.13330078 297.07080078 C-487.59656738 296.08644043 -487.05983398 295.10208008 -486.50683594 294.08789062 C-479.20497943 280.73586552 -471.6532076 267.68132307 -463.13330078 255.07080078 C-462.37799072 253.93916504 -462.37799072 253.93916504 -461.60742188 252.78466797 C-454.33823651 241.89542383 -446.72975007 231.34256903 -438.66357422 221.03027344 C-437.2098562 219.16882787 -435.76775624 217.29899389 -434.32861328 215.42626953 C-427.58410896 206.69072728 -420.44286548 198.33687144 -413.13330078 190.07080078 C-411.99634766 188.78109375 -411.99634766 188.78109375 -410.83642578 187.46533203 C-408.62255611 184.98097077 -406.38317006 182.52262683 -404.13330078 180.07080078 C-403.61074707 179.4978125 -403.08819336 178.92482422 -402.54980469 178.33447266 C-393.73164914 168.68768257 -384.57740173 159.5411425 -374.93457031 150.71923828 C-373.30565032 149.22852701 -371.68485421 147.72963357 -370.06689453 146.22705078 C-364.83007166 141.39993667 -359.4590265 136.79845747 -353.91455078 132.32861328 C-351.1383002 130.07485929 -348.41882314 127.76342936 -345.69580078 125.44580078 C-316.42689631 101.09888153 -283.83387468 80.66448274 -250.13330078 63.07080078 C-248.58449219 62.25844971 -248.58449219 62.25844971 -247.00439453 61.4296875 C-214.23824011 44.34114321 -179.6449125 31.22332634 -144.13330078 21.07080078 C-143.49331146 20.88584045 -142.85332214 20.70088013 -142.19393921 20.51031494 C-130.94313806 17.26738247 -119.65655794 14.46535381 -108.19580078 12.07080078 C-107.38980438 11.90126892 -106.58380798 11.73173706 -105.75338745 11.55706787 C-70.78128149 4.24818791 -35.70241451 0.80673993 0 0 Z " fill="#0CC0DF" transform="translate(1113.13330078125,183.92919921875)"/>
<path d="M0 0 C75.57 0 151.14 0 229 0 C229.1613254 120.68035893 229.1613254 120.68035893 229.1953125 171.2578125 C229.202633 182.09588947 229.21014079 192.93396629 229.21810398 203.77204281 C229.21918337 205.24180525 229.22025686 206.7115677 229.22132435 208.18133014 C229.23833383 231.53314848 229.26830503 254.88492758 229.30518888 278.23672228 C229.34308735 302.27504936 229.36758046 326.31335482 229.37565996 350.35171127 C229.37681226 353.76181671 229.3781148 357.17192208 229.37950897 360.58202744 C229.37991351 361.58857575 229.37991351 361.58857575 229.38032622 362.61545837 C229.38530615 373.99256018 229.40650669 385.36958039 229.43166587 396.74665396 C229.45299143 406.91499351 229.45915977 417.08327576 229.45400551 427.25163598 C229.45147145 433.09728977 229.45504465 438.94274827 229.4768219 444.78836632 C229.5993478 479.42833573 229.08383619 514.32674074 220 548 C219.7328418 548.99660645 219.46568359 549.99321289 219.19042969 551.02001953 C214.13731141 569.58950732 208.07908217 587.02003717 199 604 C198.67773438 604.60585938 198.35546875 605.21171875 198.0234375 605.8359375 C185.87284081 628.45778011 169.19410706 648.16473026 149 664 C148.09765625 664.71929688 147.1953125 665.43859375 146.265625 666.1796875 C132.91887165 676.54001262 118.26692877 684.83351537 103 692 C102.32066406 692.32564941 101.64132812 692.65129883 100.94140625 692.98681641 C74.45876457 705.63018188 45.92753662 713.23289283 16.97338867 717.50097656 C15.30154461 717.78156194 13.63174661 718.08048725 11.97561646 718.44245911 C4.26396459 720.11529712 -3.49115282 720.91181876 -11.34375 721.60546875 C-12.44326241 721.70360902 -12.44326241 721.70360902 -13.56498718 721.80373192 C-30.44327753 723.2751679 -47.26449339 723.42289036 -64.19555664 723.3225708 C-67.28577418 723.30906604 -70.37584959 723.31442718 -73.46608353 723.31943893 C-98.52651287 723.35003634 -123.25658405 722.25609969 -148 718 C-148.88107422 717.85304688 -149.76214844 717.70609375 -150.66992188 717.5546875 C-179.83808581 712.6691753 -208.2898595 704.89768261 -235 692 C-235.66467285 691.68740234 -236.3293457 691.37480469 -237.01416016 691.05273438 C-266.24080688 677.30404154 -293.15248836 657.68036704 -313 632 C-313.46970215 631.39945801 -313.9394043 630.79891602 -314.42333984 630.18017578 C-331.71348951 607.79009542 -342.14146573 581.96596519 -350 555 C-350.32742188 553.89398437 -350.65484375 552.78796875 -350.9921875 551.6484375 C-353.57074944 542.0872211 -355.16757169 532.39961098 -356.6875 522.625 C-356.79600281 521.92977234 -356.90450562 521.23454468 -357.01629639 520.51824951 C-360.44628247 498.39122086 -360 478.12957207 -360 455 C-289.38 455 -218.76 455 -146 455 C-145.67 465.56 -145.34 476.12 -145 487 C-142.27881705 506.7285764 -136.83494043 525.84170433 -121 539 C-108.07441928 548.41878254 -92.6171829 552.23518835 -76.8125 552.125 C-76.07273926 552.12016602 -75.33297852 552.11533203 -74.57080078 552.11035156 C-53.79143806 551.8860977 -34.69039826 548.24184931 -19.1484375 533.37890625 C-15.72246892 529.58542468 -13.28973524 525.5520485 -11 521 C-10.32324219 519.68515625 -10.32324219 519.68515625 -9.6328125 518.34375 C-0.61849064 499.78171445 -0.6979892 478.75029279 -0.7215271 458.5304718 C-0.71651094 456.5382921 -0.71063135 454.54611442 -0.70397437 452.55393952 C-0.6883199 447.13550266 -0.6847518 441.71711785 -0.68332577 436.29866111 C-0.67960602 430.4345765 -0.66443797 424.5705196 -0.65071106 418.70645142 C-0.62851474 408.56506457 -0.61345575 398.42368769 -0.60334396 388.28228188 C-0.59274069 377.6555612 -0.57812461 367.02885823 -0.55806351 356.40215111 C-0.55681464 355.73939705 -0.55556577 355.076643 -0.55427906 354.39380549 C-0.54791459 351.02749408 -0.54147759 347.66118281 -0.53501268 344.29487159 C-0.48944898 320.50184788 -0.45295913 296.70881815 -0.421875 272.91577148 C-0.3916716 249.81289792 -0.35728168 226.71003667 -0.31738281 203.60717773 C-0.31487612 202.15233733 -0.31236954 200.69749693 -0.30986309 199.24265653 C-0.29043374 187.97742348 -0.27073946 176.7121909 -0.25098133 165.44695842 C-0.15431691 110.29798729 -0.07862763 55.1490055 0 0 Z " fill="#FEFEFE" transform="translate(1162,381)"/>
</svg>
