<?xml version="1.0" encoding="UTF-8"?>
<svg version="1.1" xmlns="http://www.w3.org/2000/svg" width="2038" height="507">
<path d="M0 0 C672.54 0 1345.08 0 2038 0 C2038 167.31 2038 334.62 2038 507 C1365.46 507 692.92 507 0 507 C0 339.69 0 172.38 0 0 Z " fill="#FEFEFE" transform="translate(0,0)"/>
<path d="M0 0 C0.91480133 -0.00376648 1.82960266 -0.00753296 2.77212524 -0.01141357 C18.41328767 -0.04401576 33.8844716 0.77013327 49.1875 4.25 C49.92033203 4.40662109 50.65316406 4.56324219 51.40820312 4.72460938 C78.87803497 10.72541685 105.54255127 21.25280047 129.1640625 36.5703125 C132.47814046 38.44129829 135.57342961 39.3759329 139.25 40.3125 C143.93519663 42.28028258 146.72631022 44.6984592 150.25 48.3125 C152.54148936 49.80463261 154.80819818 51.09159909 157.25 52.3125 C157.25 52.9725 157.25 53.6325 157.25 54.3125 C157.86875 54.43625 158.4875 54.56 159.125 54.6875 C161.25 55.3125 161.25 55.3125 163.25 57.3125 C163.25 58.6325 163.25 59.9525 163.25 61.3125 C163.86875 61.395 164.4875 61.4775 165.125 61.5625 C167.91938743 62.54875439 167.966952 63.74640399 169.25 66.3125 C171.27463255 66.96463292 171.27463255 66.96463292 173.25 67.3125 C173.58 67.9725 173.91 68.6325 174.25 69.3125 C175.013125 69.76625 175.77625 70.22 176.5625 70.6875 C179.25 72.3125 179.25 72.3125 181.25 74.4375 C183.11279649 76.54155078 183.11279649 76.54155078 185.8125 76.6875 C186.616875 76.89375 187.42125 77.1 188.25 77.3125 C189.32401615 79.27374688 190.31057514 81.28334231 191.25 83.3125 C193.70962117 86.55472791 196.41292497 89.52466468 199.375 92.3125 C201.42628066 94.50053271 202.76291677 96.83910476 204.18359375 99.46875 C205.25188568 101.31576022 206.44802448 102.93681156 207.75 104.625 C211.2492081 109.40255657 214.25 115.3263354 214.25 121.3125 C214.86875 121.580625 215.4875 121.84875 216.125 122.125 C219.65527107 124.09779854 220.65378641 127.09252696 221.875 130.75 C222.13539063 131.51183594 222.39578125 132.27367187 222.6640625 133.05859375 C223.25 135.3125 223.25 135.3125 223.25 139.3125 C223.91 139.3125 224.57 139.3125 225.25 139.3125 C225.58 141.2925 225.91 143.2725 226.25 145.3125 C226.91 145.3125 227.57 145.3125 228.25 145.3125 C228.58 148.2825 228.91 151.2525 229.25 154.3125 C230.24 154.6425 231.23 154.9725 232.25 155.3125 C236.31728239 164.49501254 238.18728288 174.52622554 240.25 184.3125 C240.42096191 185.12315918 240.59192383 185.93381836 240.76806641 186.76904297 C245.98687805 212.87393984 245.70082777 243.70767124 238.25 269.3125 C237.76368504 271.76545128 237.30668648 274.22434775 236.875 276.6875 C228.68669808 321.22336856 209.58877331 362.50961242 179.25 396.3125 C178.71697266 396.90724121 178.18394531 397.50198242 177.63476562 398.11474609 C171.50387704 404.91675692 165.36999034 411.53049442 158.25 417.3125 C157.07757852 418.29622406 155.90576659 419.2806748 154.734375 420.265625 C131.81821483 439.38268325 105.72191947 454.40215195 77.28222656 463.64941406 C75.29376482 464.29822018 73.31497994 464.97152745 71.3359375 465.6484375 C64.08811314 468.07680414 56.80203801 469.970105 49.3125 471.5 C48.56315186 471.65484863 47.81380371 471.80969727 47.04174805 471.96923828 C32.02501321 474.87488715 17.19657405 475.66121163 1.93066406 475.62817383 C-1.11429625 475.62501112 -4.15828355 475.64858515 -7.203125 475.67382812 C-19.66254336 475.71365471 -31.52868811 474.74101801 -43.75 472.3125 C-44.81862778 472.10228966 -44.81862778 472.10228966 -45.90884399 471.88783264 C-88.32172034 463.42150047 -128.72186502 442.8318422 -159.98046875 412.90625 C-162.66950625 410.3184508 -162.66950625 410.3184508 -165.4140625 408.19140625 C-167.53100039 406.48865186 -169.19620032 404.82254949 -170.9375 402.75 C-172.9012211 400.43998829 -174.87644722 398.17936245 -176.96484375 395.98046875 C-202.27396483 369.27667974 -218.23008893 335.17798947 -228.75 300.3125 C-228.98299805 299.55984863 -229.21599609 298.80719727 -229.45605469 298.03173828 C-236.51189584 274.86717005 -237.49670689 250.33092675 -236.75 226.3125 C-236.73308105 225.51070312 -236.71616211 224.70890625 -236.69873047 223.8828125 C-235.93899143 189.46263557 -224.85908688 155.47064948 -208.75 125.3125 C-208.39824707 124.64766602 -208.04649414 123.98283203 -207.68408203 123.29785156 C-198.48353459 106.02149777 -186.93234164 90.97081969 -173.73828125 76.5234375 C-172.1539618 74.76169917 -170.65609002 72.98161213 -169.1875 71.125 C-166.64965666 68.19671922 -163.96470196 65.77469166 -161.015625 63.2734375 C-159.45161608 61.91976082 -157.92176524 60.52595491 -156.421875 59.1015625 C-125.61379441 29.90003826 -84.83531101 12.11202694 -43.75 3.3125 C-42.92000488 3.13170898 -42.09000977 2.95091797 -41.23486328 2.76464844 C-27.62009741 -0.0368354 -13.83973097 0.03154069 0 0 Z " fill="#000000" transform="translate(250.75,16.6875)"/>
<path d="M0 0 C28.71 -0.0928125 28.71 -0.0928125 58 -0.1875 C67.02214844 -0.22846802 67.02214844 -0.22846802 76.2265625 -0.27026367 C83.64453125 -0.28381348 83.64453125 -0.28381348 87.13134766 -0.28633118 C89.53566154 -0.29089912 91.93996911 -0.30136857 94.34423828 -0.31672668 C115.44171127 -0.44460627 136.47750488 -0.35969241 154 13 C154.68964844 13.51304687 155.37929687 14.02609375 156.08984375 14.5546875 C165.86021113 22.39348513 172.45366714 34.58515615 174 47 C174.15916643 50.12632981 174.18503934 53.24504027 174.1875 56.375 C174.19974609 57.18710938 174.21199219 57.99921875 174.22460938 58.8359375 C174.25893482 73.11532346 168.03459276 85.63149253 158.5 96.0625 C153.1557246 101.25020484 146.53430551 104.54929934 140 108 C146.21785715 120.06336939 152.45796055 132.10858352 159 144 C166.25661323 157.19384223 173.26577505 170.53155009 180 184 C157.89 184 135.78 184 113 184 C109.04 175.75 105.08 167.5 101 159 C97.42327479 151.64252511 93.84227591 144.28736128 90.25 136.9375 C89.34106939 135.0762092 88.43221512 133.21488112 87.5234375 131.35351562 C85.34996576 126.90185033 83.17496338 122.45093791 81 118 C70.11 117.505 70.11 117.505 59 117 C59 139.11 59 161.22 59 184 C39.53 184 20.06 184 0 184 C0 123.28 0 62.56 0 0 Z " fill="#010101" transform="translate(1227,159)"/>
<path d="M0 0 C25.41 0 50.82 0 77 0 C77.1209091 41.19417909 77.1209091 41.19417909 77.14648438 58.53320312 C77.16424519 70.47798553 77.18505879 82.42270419 77.22631836 94.36743164 C77.25636071 103.06895231 77.27560798 111.77042097 77.28226548 120.47199208 C77.28615278 125.07301692 77.29519194 129.67389306 77.31719017 134.27486992 C77.33779063 138.61934391 77.34378706 142.96361016 77.33932304 147.30812836 C77.34013785 148.88936816 77.34596155 150.47061606 77.35761642 152.05181313 C77.52128976 175.43516877 72.76937055 199.07969529 56.39453125 216.76953125 C35.72455323 236.02329544 8.04152852 241.61172075 -19.30639648 241.33618164 C-21.82893424 241.3123447 -24.3504228 241.31568677 -26.87304688 241.32226562 C-53.70899396 241.27686514 -79.75221682 235.04087 -99.78515625 216.2421875 C-117.10595248 198.70755428 -120 175.54793596 -120 152 C-96.24 152 -72.48 152 -48 152 C-47.01 160.91 -47.01 160.91 -46 170 C-41.95853501 178.51282424 -41.95853501 178.51282424 -34.30078125 182.58203125 C-30.93744784 183.1930273 -27.59437772 183.22483377 -24.1875 183.25 C-23.50107422 183.270625 -22.81464844 183.29125 -22.10742188 183.3125 C-15.81879923 183.36009601 -11.34856536 181.76142402 -6.25 177.9375 C0.20714431 169.50733937 -0.55620687 158.8473249 -0.56762695 148.71826172 C-0.55859634 147.0911841 -0.54826596 145.46411327 -0.53674316 143.83705139 C-0.50929948 139.44726942 -0.49990592 135.05761697 -0.49388909 130.66776037 C-0.48447236 126.06996936 -0.45826642 121.47227385 -0.43388367 116.87454224 C-0.39030544 108.18027435 -0.36170527 99.48602509 -0.33856028 90.79168141 C-0.30638917 79.0344084 -0.25093058 67.27724633 -0.19681454 55.52005768 C-0.11224275 37.01340488 -0.05865542 18.50679511 0 0 Z " fill="#FDFDFD" transform="translate(273,132)"/>
<path d="M0 0 C17.49 0 34.98 0 53 0 C53.33 21.78 53.66 43.56 54 66 C56.31 64.02 58.62 62.04 61 60 C74.97352509 50.47554163 91.46155001 46.69807875 108.109375 49.33398438 C119.25174508 51.51355104 130.03340548 55.64714667 137 65 C143.28097827 75.74546181 146.3197412 85.23256599 146.22705078 97.63867188 C146.22734283 98.67371857 146.22763489 99.70876526 146.22793579 100.775177 C146.22655004 104.17312198 146.21102437 107.57084365 146.1953125 110.96875 C146.19157969 113.33386109 146.18873398 115.69897373 146.18673706 118.06408691 C146.17912175 124.27173169 146.15949128 130.47928203 146.1373291 136.68688965 C146.11321679 144.14427743 146.10407969 151.60169689 146.09242249 159.05911255 C146.07306572 170.37280726 146.03472829 181.686295 146 193 C128.51 193 111.02 193 93 193 C92.96261719 186.42835938 92.92523437 179.85671875 92.88671875 173.0859375 C92.8564397 168.92054677 92.82529222 164.75519881 92.79101562 160.58984375 C92.73670348 153.97967689 92.68559284 147.36959463 92.65356445 140.75927734 C92.62753866 135.4293675 92.58714097 130.09974193 92.53681374 124.77000809 C92.5201402 122.7375098 92.50862896 120.70496233 92.50238609 118.67240524 C92.49275046 115.82345592 92.46469716 112.97523468 92.43237305 110.12646484 C92.43380814 109.28776855 92.43524323 108.44907227 92.4367218 107.58496094 C92.34686597 101.97817376 91.42154317 97.65486894 87.5 93.35546875 C81.75668164 88.88345784 77.10973599 88.25105155 70 89 C64.13362044 90.77615298 60.47558875 93.93557068 57 99 C54.21600718 104.44867505 53.55657374 108.70907055 53.56762695 114.78100586 C53.5574353 115.63058868 53.54724365 116.48017151 53.53674316 117.35549927 C53.50673562 120.14201558 53.49736604 122.92818743 53.48828125 125.71484375 C53.47142548 127.6554121 53.45327403 129.5959696 53.43388367 131.53651428 C53.38647513 136.62782396 53.35660661 141.7190896 53.33044434 146.81054688 C53.29533812 152.92810331 53.23835141 159.04549069 53.18505096 165.16291046 C53.10664433 174.4419186 53.05595747 183.72070703 53 193 C35.51 193 18.02 193 0 193 C0 129.31 0 65.62 0 0 Z " fill="#010101" transform="translate(502,150)"/>
<path d="M0 0 C9.31975517 8.6780671 15.61166205 19.74857299 18.3828125 32.21875 C18.56585937 32.90839844 18.74890625 33.59804687 18.9375 34.30859375 C21.34910785 44.76440041 20.3828125 54.01645533 20.3828125 65.21875 C-14.2671875 65.21875 -48.9171875 65.21875 -84.6171875 65.21875 C-83.76464061 74.59676577 -82.82155758 83.58314598 -75.6171875 90.21875 C-66.85917333 95.65229349 -56.44235766 95.20129378 -46.578125 93.78125 C-41.43700675 92.53868366 -38.20339457 90.53170128 -34.7734375 86.5234375 C-33.02136629 83.26482509 -33.02136629 83.26482509 -31.6171875 75.21875 C-14.4571875 75.21875 2.7028125 75.21875 20.3828125 75.21875 C19.13479553 91.44297059 15.25444193 102.20533821 3.578125 113.37109375 C-7.34819548 122.56708945 -19.77690567 125.77583978 -33.53417969 127.89331055 C-35.17879943 128.15025829 -36.81810633 128.4412036 -38.45483398 128.74438477 C-64.19781185 132.60593082 -91.85612596 128.868553 -113.6171875 114.21875 C-127.60885855 103.74136762 -135.53244282 87.69720346 -138.1796875 70.58203125 C-140.77257158 48.09112383 -138.05770646 25.84182506 -124.17578125 7.32421875 C-112.8446546 -6.89996151 -95.14901519 -14.85158923 -77.37109375 -17.06030273 C-50.63808794 -20.00772105 -21.40408262 -17.9821133 0 0 Z " fill="#010101" transform="translate(1543.6171875,216.78125)"/>
<path d="M0 0 C1.21042969 0.51046875 2.42085937 1.0209375 3.66796875 1.546875 C19.17214459 8.45142604 29.8116564 19.22094403 36.1875 35.125 C40.877696 49.15633948 41 61.97516019 41 77 C6.02 77 -28.96 77 -65 77 C-63.16505647 90.05014646 -63.16505647 90.05014646 -56.25 100.9375 C-46.95144365 106.83850691 -36.87510443 107.48465084 -26.140625 105.4609375 C-21.77324568 104.12727469 -18.1285559 102.40460495 -15 99 C-13.10180637 95.13183231 -12.04287071 91.17148282 -11 87 C5.83 87 22.66 87 40 87 C40 101.38623965 37.19915136 111.49124091 27.5 122.125 C8.7938422 139.76019456 -17.84111565 141.75310163 -42.19921875 141.28125 C-64.48154389 140.53798968 -84.38480123 135.07688465 -100.9375 119.5 C-106.61093394 113.33747693 -110.28106477 106.84991594 -113.25 99.0625 C-113.4962915 98.41869385 -113.74258301 97.7748877 -113.99633789 97.11157227 C-121.15075918 77.35844985 -120.888091 52.2574189 -112.26953125 32.98828125 C-103.88754243 15.57029835 -90.16522622 4.38777186 -72 -2 C-50.08494741 -8.38981032 -21.27392417 -9.33127934 0 0 Z " fill="#020202" transform="translate(779,205)"/>
<path d="M0 0 C11.14695703 9.3423637 17.54666513 19.96283325 21 34 C21.2990625 35.15242188 21.598125 36.30484375 21.90625 37.4921875 C24.39262182 48.19739952 24 56.42229071 24 68 C-10.98 68 -45.96 68 -82 68 C-80.31642484 81.53143655 -80.31642484 81.53143655 -73.25 91.8125 C-64.46499014 97.72548741 -55.31180067 98.11519841 -45 97 C-40.0448655 95.86913495 -36.39087476 94.21255749 -32.5625 90.875 C-30.32581047 86.99350862 -30.32581047 86.99350862 -28 78 C-11.17 78 5.66 78 23 78 C23 92.55535209 19.77715096 102.30694489 10.109375 113.11328125 C-6.69728891 129.63128108 -31.60888363 132.2905214 -54 132.3125 C-77.38164392 132.09455955 -99.95734257 127.39297455 -117.3515625 110.75 C-133.44011703 93.9619431 -135.51461182 72.89574698 -135.09765625 50.78320312 C-134.91978907 45.71398854 -134.25067606 40.90890353 -133 36 C-132.79375 35.14921875 -132.5875 34.2984375 -132.375 33.421875 C-128.04887792 17.39555912 -118.23212341 4.75756947 -104.3125 -4.1875 C-74.00096005 -21.40146096 -28.66400627 -20.14333592 0 0 Z " fill="#020202" transform="translate(1851,214)"/>
<path d="M0 0 C18.81 0 37.62 0 57 0 C64.86570339 25.84445399 64.86570339 25.84445399 67.4375 35.8125 C70.08930447 45.87685277 73.03744926 55.82154093 76.14233398 65.75463867 C78.95945202 74.78510948 81.54513286 83.86506171 84 93 C86.72024571 90.27975429 86.97902247 87.33021464 87.75 83.6875 C89.21585498 77.11253401 90.91112853 70.64942094 92.8125 64.1875 C95.28075632 55.75844024 97.46578755 47.27871973 99.5625 38.75 C101.81349001 29.59733147 104.19508631 20.52729517 106.95703125 11.515625 C108.08624202 7.70929657 109.03706169 3.85175323 110 0 C127.16 0 144.32 0 162 0 C160.87507628 6.74954231 160.87507628 6.74954231 159.61157227 10.1262207 C159.3286734 10.89052399 159.04577454 11.65482727 158.75430298 12.44229126 C158.44479706 13.26184296 158.13529114 14.08139465 157.81640625 14.92578125 C157.48965912 15.80446869 157.16291199 16.68315613 156.82626343 17.58847046 C155.74315279 20.49829865 154.6527221 23.40532963 153.5625 26.3125 C152.40091908 29.42844152 151.2412757 32.54510023 150.08161926 35.66175842 C149.27576903 37.82698411 148.46927049 39.9919686 147.66215515 42.15672302 C143.7568401 52.63424482 139.90456747 63.13092393 136.05825806 73.63021851 C133.81916739 79.73816518 131.57243384 85.84330435 129.32652283 91.94874573 C127.47398235 96.98603893 125.62431091 102.02434993 123.78076172 107.06494141 C121.99107895 111.95793285 120.1939171 116.84811781 118.39163208 121.73648071 C117.72864581 123.5386817 117.06826191 125.3418428 116.41085815 127.14608765 C113.18257604 136.00190971 109.81367471 144.73264974 105.82421875 153.27734375 C105.50935516 153.95410156 105.19449158 154.63085938 104.87008667 155.328125 C101.63987253 162.06999225 97.55082257 168.06738221 93 174 C92.41476562 174.76957031 91.82953125 175.53914062 91.2265625 176.33203125 C86.89851738 181.64557022 81.79256346 185.38773156 76 189 C75.38769531 189.39058594 74.77539062 189.78117188 74.14453125 190.18359375 C57.9002756 199.39942974 35.65725886 199.43941857 18 195 C15.69 194.34 13.38 193.68 11 193 C11 182.11 11 171.22 11 160 C24.5 159.6875 24.5 159.6875 28.70898438 159.61206055 C39.77025872 159.43620622 39.77025872 159.43620622 49.05859375 154.02734375 C49.51363281 153.33769531 49.96867187 152.64804687 50.4375 151.9375 C50.91058594 151.24527344 51.38367187 150.55304688 51.87109375 149.83984375 C54.278749 145.91594887 54.39323593 142.52555418 54 138 C53.01954339 134.39003536 53.01954339 134.39003536 51.50341797 130.80444336 C51.1022643 129.79248319 51.1022643 129.79248319 50.69300652 128.76007938 C49.80568962 126.53123239 48.89909441 124.31078359 47.9921875 122.08984375 C47.35534351 120.50153998 46.71973077 118.91274205 46.08526611 117.32348633 C44.38271765 113.06836965 42.66360141 108.82012906 40.9414444 104.57291794 C39.16136397 100.17394889 37.39752659 95.7684806 35.63232422 91.36352539 C32.44208263 83.40859766 29.23967834 75.45864266 26.03110313 67.51109409 C21.1845986 55.50544947 16.36109239 43.49059976 11.54449463 31.47293091 C10.14752887 27.99361101 8.74400691 24.5169945 7.33935547 21.04077148 C6.4995367 18.95301766 5.6598472 16.86521182 4.8203125 14.77734375 C4.44263733 13.84768799 4.06496216 12.91803223 3.67584229 11.96020508 C3.33438171 11.1082959 2.99292114 10.25638672 2.64111328 9.37866211 C2.19845627 8.28260902 2.19845627 8.28260902 1.74685669 7.16441345 C1 5 1 5 0 0 Z " fill="#010101" transform="translate(1561,202)"/>
<path d="M0 0 C17.49 0 34.98 0 53 0 C53.05607422 9.60609375 53.05607422 9.60609375 53.11328125 19.40625 C53.14356908 23.47138072 53.17472232 27.53646808 53.20898438 31.6015625 C53.26324461 38.04913107 53.31435733 44.49661388 53.34643555 50.94433594 C53.3725083 56.14458059 53.41293908 61.34453617 53.46318626 66.54460144 C53.47982808 68.52520645 53.49135904 70.50586144 53.49761391 72.48652649 C53.50728417 75.2680162 53.53537843 78.04877083 53.56762695 80.83007812 C53.56619186 81.64288239 53.56475677 82.45568665 53.5632782 83.29312134 C53.65771695 89.07982724 54.36299363 95.08515991 58.41627979 99.56549835 C63.14691433 103.66372123 67.18283199 104.42441035 73.234375 104.3359375 C78.90238703 103.64745016 83.975052 101.38720933 87.703125 96.9921875 C91.40454423 91.22733341 92.15718712 86.37302875 92.20532227 79.58129883 C92.21522186 78.72254654 92.22512146 77.86379425 92.23532104 76.97901917 C92.26692766 74.13838465 92.29169021 71.2977334 92.31640625 68.45703125 C92.3369765 66.48833276 92.35797299 64.51963868 92.37937927 62.5509491 C92.43459262 57.36751882 92.48400518 52.18404873 92.53222656 47.00054932 C92.59127551 40.78219494 92.65749946 34.56391338 92.72252655 28.3456192 C92.8205268 18.89712391 92.90938924 9.44858207 93 0 C110.49 0 127.98 0 146 0 C146 46.53 146 93.06 146 141 C131.48 141 116.96 141 102 141 C101.01 135.06 100.02 129.12 99 123 C96.87889636 122.76854361 96.87889636 122.76854361 95.44140625 124.50390625 C94.82136719 125.18324219 94.20132813 125.86257813 93.5625 126.5625 C82.28373709 138.06520947 67.18373556 143.86412229 51.20629883 144.23461914 C36.29274108 144.34483077 23.39444857 142.13021651 12.17578125 131.62890625 C9.45403261 128.34033024 7.49363642 124.92029957 5.5625 121.125 C5.23233887 120.47748779 4.90217773 119.82997559 4.56201172 119.1628418 C0.49114008 110.57907557 -0.29988524 101.80118198 -0.22705078 92.40966797 C-0.22734283 91.40358994 -0.22763489 90.3975119 -0.22793579 89.36094666 C-0.22655448 86.07126919 -0.21105015 82.78182486 -0.1953125 79.4921875 C-0.19157811 77.19719568 -0.18873315 74.90220225 -0.18673706 72.60720825 C-0.1791342 66.59358244 -0.15951467 60.58005463 -0.1373291 54.56646729 C-0.1131828 47.33680242 -0.10407375 40.10710462 -0.09242249 32.87741089 C-0.0730882 21.91820595 -0.03474214 10.95921568 0 0 Z " fill="#000000" transform="translate(832,202)"/>
<path d="M0 0 C6.41446867 6.26354 10.66195042 13.04293868 12 22 C12 24.31 12 26.62 12 29 C-4.5 29 -21 29 -38 29 C-38.66 26.69 -39.32 24.38 -40 22 C-45.88863889 17.23897281 -50.58922118 16.79619203 -57.8125 16.75 C-58.60720703 16.729375 -59.40191406 16.70875 -60.22070312 16.6875 C-65.25234629 16.65420542 -68.60992467 17.27084799 -73 20 C-74.36290958 21.16009906 -74.36290958 21.16009906 -74.4375 24.3125 C-74.41251892 28.16408106 -74.41251892 28.16408106 -71.39990234 30.13232422 C-67.87250941 32.07003469 -65.11293446 32.87626176 -61.1640625 33.5703125 C-60.51756744 33.68803009 -59.87107239 33.80574768 -59.20498657 33.92703247 C-57.13893535 34.29935338 -55.0701226 34.65109207 -53 35 C-51.63367027 35.23727268 -50.26745871 35.47522688 -48.90136719 35.71386719 C-46.12984452 36.19503146 -43.35804605 36.67456634 -40.5859375 37.15234375 C-39.54518066 37.33192627 -39.54518066 37.33192627 -38.48339844 37.51513672 C-37.07490808 37.75553908 -35.66571385 37.99185244 -34.25585938 38.22412109 C-21.67585058 40.30626936 -9.45083457 43.29452816 1 51 C1.61488281 51.45117188 2.22976563 51.90234375 2.86328125 52.3671875 C9.08613097 57.2974967 12.94084315 63.32827402 15 71 C15.29893544 73.88032672 15.33363873 76.73083153 15.3125 79.625 C15.30512817 80.8159729 15.30512817 80.8159729 15.29760742 82.03100586 C15.05528319 94.3000679 11.83808426 104.89454063 3.5625 114.125 C-11.45831587 128.27218493 -35.05022192 131.37884681 -54.75317383 131.31567383 C-56.80018759 131.31251898 -58.84574197 131.33605854 -60.89257812 131.36132812 C-81.60750228 131.46211745 -102.70809749 126.07144401 -118.33984375 111.875 C-126.66618925 103.19203263 -130 93.82609716 -130 82 C-113.5 82 -97 82 -80 82 C-79.34 84.97 -78.68 87.94 -78 91 C-77.67 91.99 -77.34 92.98 -77 94 C-74.70465742 95.13545562 -74.70465742 95.13545562 -72 96 C-71.32066406 96.34289062 -70.64132812 96.68578125 -69.94140625 97.0390625 C-65.68627755 98.42918423 -61.63553649 98.32886511 -57.1875 98.3125 C-56.32318359 98.32861328 -55.45886719 98.34472656 -54.56835938 98.36132812 C-48.07057836 98.36623211 -42.01361126 97.64832505 -36.9375 93.1875 C-35.52637473 89.89487437 -35.6795701 88.3358229 -37 85 C-43.66880903 80.74007636 -51.03286347 79.45189302 -58.6789856 77.93630981 C-60.9076678 77.49350948 -63.13258239 77.03488839 -65.35717773 76.57202148 C-71.43064936 75.31225085 -77.50847481 74.08292669 -83.60546875 72.94140625 C-97.95536698 70.17630457 -111.84484633 65.01088968 -121 53 C-127.39608795 43.01060422 -127.24881306 30.3606976 -125.5390625 18.9140625 C-122.68269484 8.26149133 -115.64373165 -0.03473118 -106.27734375 -5.625 C-76.72491392 -21.19940307 -26.86625098 -22.7329816 0 0 Z " fill="#010101" transform="translate(1120,215)"/>
<path d="M0 0 C20.49946213 -0.34489106 44.16988228 2.55891255 60.37890625 16.20703125 C68.94441603 24.86066355 71.27734375 32.94521412 71.27734375 45.125 C55.10734375 45.125 38.93734375 45.125 22.27734375 45.125 C21.28734375 42.485 20.29734375 39.845 19.27734375 37.125 C15.27446456 33.31108576 9.80924576 32.63148665 4.46875 32.62695312 C3.32212891 32.65692383 3.32212891 32.65692383 2.15234375 32.6875 C1.38019531 32.68041016 0.60804687 32.67332031 -0.1875 32.66601562 C-6.03384136 32.73075365 -10.44945293 33.85179668 -14.72265625 38.125 C-15.30667758 40.53917872 -15.30667758 40.53917872 -14.72265625 43.125 C-7.06408255 52.10401745 12.18573866 52.11874116 23.23828125 53.921875 C37.58733416 56.2770387 50.4179281 59.17449762 62.27734375 68.125 C63.20546875 68.805625 64.13359375 69.48625 65.08984375 70.1875 C71.11325032 75.52251724 74.6646468 82.05373022 75.48144531 90.14746094 C76.24061803 104.24000318 74.3254817 116.61001377 65.71484375 128.234375 C58.57712839 135.98977727 48.17670739 140.13418102 38.27734375 143.125 C37.11074219 143.49882812 35.94414063 143.87265625 34.7421875 144.2578125 C8.4144395 151.82370598 -23.61849764 148.9932472 -47.72265625 136.125 C-51.0400337 134.05522416 -53.89338115 131.8184699 -56.72265625 129.125 C-57.4290625 128.47015625 -58.13546875 127.8153125 -58.86328125 127.140625 C-67.22100317 118.65908498 -69.72265625 109.88344736 -69.72265625 98.125 C-53.55265625 98.125 -37.38265625 98.125 -20.72265625 98.125 C-19.73265625 101.095 -18.74265625 104.065 -17.72265625 107.125 C-14.90677511 110.94655298 -11.20351501 112.76542765 -6.72265625 114.125 C-3.3993141 114.54068064 -0.13061552 114.54517499 3.21484375 114.5 C4.07013672 114.51160156 4.92542969 114.52320313 5.80664062 114.53515625 C11.61431893 114.50857649 16.01456045 113.62996725 21.27734375 111.125 C23.59016962 107.65576119 23.70212961 106.20294425 23.27734375 102.125 C17.83871032 95.15729391 5.65569883 94.58034306 -2.47265625 93.25 C-44.13468272 86.36456395 -44.13468272 86.36456395 -57.72265625 73.125 C-58.42390625 72.444375 -59.12515625 71.76375 -59.84765625 71.0625 C-66.56399164 60.54024123 -67.14729969 48.25247019 -65.72265625 36.125 C-63.21099665 25.67827424 -56.81262271 17.71323396 -48.13671875 11.56640625 C-33.0332682 2.54832655 -17.22489017 0.57838036 0 0 Z " fill="#010101" transform="translate(1949.72265625,198.875)"/>
<path d="M0 0 C6.1388594 -0.09204454 12.2753059 -0.17161904 18.41430664 -0.21972656 C20.50065239 -0.23978913 22.58694227 -0.2670459 24.6730957 -0.30175781 C27.67933978 -0.35051159 30.68483769 -0.37302267 33.69140625 -0.390625 C34.61772354 -0.41127014 35.54404083 -0.43191528 36.49842834 -0.45318604 C42.55493122 -0.45526446 46.032479 0.48592541 51 4 C54.87847692 7.87847692 55.31322031 11.20389188 55.5 16.5 C55.31917096 21.79829088 54.82168843 25.07774082 51 29 C45.631513 33.57576107 41.29232504 33.53619227 34.5703125 33.390625 C33.57998016 33.38496521 32.58964783 33.37930542 31.56930542 33.37347412 C28.42070225 33.35116674 25.27325651 33.30098002 22.125 33.25 C19.98439149 33.22992775 17.84376506 33.21167825 15.703125 33.1953125 C10.46795041 33.15472975 5.23526355 33.07642721 0 33 C0 22.11 0 11.22 0 0 Z " fill="#FCFCFC" transform="translate(1286,202)"/>
<path d="M0 0 C4.50598174 3.63411909 7.31007116 6.85438437 8.91015625 12.5546875 C8.91015625 15.1946875 8.91015625 17.8346875 8.91015625 20.5546875 C-7.91984375 20.5546875 -24.74984375 20.5546875 -42.08984375 20.5546875 C-41.11782273 11.80649833 -40.58356087 7.29945176 -33.93359375 1.7578125 C-24.70392039 -4.70295885 -9.7168375 -6.72005584 0 0 Z " fill="#F5F5F5" transform="translate(1501.08984375,236.4453125)"/>
<path d="M0 0 C4.79295517 3.64264593 7.60639407 8.02812328 9.16796875 13.84765625 C9.16796875 15.82765625 9.16796875 17.80765625 9.16796875 19.84765625 C-7.66203125 19.84765625 -24.49203125 19.84765625 -41.83203125 19.84765625 C-41.83203125 13.05022793 -40.75817805 9.22106383 -36.32421875 4.109375 C-27.22405113 -4.41938675 -10.76363902 -6.770306 0 0 Z " fill="#FCFCFC" transform="translate(756.83203125,236.15234375)"/>
<path d="M0 0 C1.09183594 -0.01417969 2.18367188 -0.02835938 3.30859375 -0.04296875 C9.79148886 0.41620389 14.8202009 2.85857322 19.5625 7.1875 C24.00353341 12.40994691 23.5625 15.95878377 23.5625 23.1875 C7.0625 23.1875 -9.4375 23.1875 -26.4375 23.1875 C-25.47719794 14.5447815 -25.15901953 11.84736523 -19.4375 6.1875 C-13.20452142 1.28146413 -7.89562428 0.04649955 0 0 Z " fill="#FDFDFD" transform="translate(1796.4375,232.8125)"/>
<path d="M0 0 C0.33 0.66 0.66 1.32 1 2 C1.66 2 2.32 2 3 2 C3.33 4.64 3.66 7.28 4 10 C4.99 10 5.98 10 7 10 C7 12.97 7 15.94 7 19 C7.66 19 8.32 19 9 19 C9.13277344 20.19238281 9.26554687 21.38476562 9.40234375 22.61328125 C9.58055983 24.17970678 9.75895456 25.74611198 9.9375 27.3125 C10.02451172 28.09818359 10.11152344 28.88386719 10.20117188 29.69335938 C10.28818359 30.45068359 10.37519531 31.20800781 10.46484375 31.98828125 C10.58267212 33.03302612 10.58267212 33.03302612 10.70288086 34.09887695 C10.97996783 36.21648234 10.97996783 36.21648234 12 39 C12.08799471 40.76408128 12.11764257 42.53133766 12.11352539 44.29760742 C12.11344986 45.37850143 12.11337433 46.45939545 12.11329651 47.57304382 C12.10813522 48.73874405 12.10297394 49.90444427 12.09765625 51.10546875 C12.0962413 52.29981033 12.09482635 53.49415192 12.09336853 54.72468567 C12.0877635 58.54564908 12.07521011 62.36655425 12.0625 66.1875 C12.05748565 68.77538978 12.05292263 71.36328048 12.04882812 73.95117188 C12.03779243 80.30080118 12.02104936 86.65039643 12 93 C11.34 93 10.68 93 10 93 C10.01160156 93.59425781 10.02320313 94.18851562 10.03515625 94.80078125 C10.10461591 101.18114695 10.15807867 107.70704421 9 114 C8.01 114.99 8.01 114.99 7 116 C6.28072705 118.31765729 5.6090107 120.65095874 5 123 C3.50425124 120.00850247 4.35194982 117.70118979 4.875 114.4375 C5.05804688 113.26058594 5.24109375 112.08367187 5.4296875 110.87109375 C6 108 6 108 7 107 C13.20282901 76.72505219 13.07434658 39.54990553 2.4375 10.3125 C1.25003158 6.8940303 0.4618383 3.60233872 0 0 Z " fill="#B8B8B8" transform="translate(483,172)"/>
<path d="M0 0 C0.33 0 0.66 0 1 0 C9.16522479 31.85405876 13.53026959 66.46094515 6 99 C5.01 99.495 5.01 99.495 4 100 C3.72974361 92.16256482 3.44034748 82.11930504 7 75 C7.09757427 72.85723229 7.13077146 70.71139343 7.1328125 68.56640625 C7.13410156 67.27798828 7.13539063 65.98957031 7.13671875 64.66210938 C7.13462402 63.98946045 7.1325293 63.31681152 7.13037109 62.6237793 C7.12502991 60.57398035 7.13031546 58.52440141 7.13671875 56.47460938 C7.13478516 54.54004883 7.13478516 54.54004883 7.1328125 52.56640625 C7.13112061 50.78665405 7.13112061 50.78665405 7.12939453 48.97094727 C7.13379825 45.94364621 7.13379825 45.94364621 6 43 C5.847477 40.75169803 5.72644824 38.50118486 5.625 36.25 C5.31305454 30.53520856 5.31305454 30.53520856 3.5 25.1875 C1.59811251 21.14598909 1.29026748 17.41406756 1 13 C0.67 13 0.34 13 0 13 C0 8.71 0 4.42 0 0 Z " fill="#464646" transform="translate(485,180)"/>
<path d="M0 0 C0.99 0.33 1.98 0.66 3 1 C3 1.66 3 2.32 3 3 C3.99 3.33 4.98 3.66 6 4 C6 4.99 6 5.98 6 7 C6.66 7 7.32 7 8 7 C8.33 8.65 8.66 10.3 9 12 C9.99 12.33 10.98 12.66 12 13 C13.70012566 15.69776885 14.39676041 18.32973888 15 21.4375 C15.70805006 24.79520614 16.45470735 27.9094147 18 31 C18.66 31.33 19.32 31.66 20 32 C21.57210668 36.45430227 22.22991927 40.28665497 22 45 C20.515 44.505 20.515 44.505 19 44 C17.5216774 41.04335481 17.93967217 38.25770263 18 35 C17.34 35 16.68 35 16 35 C15.67 33.02 15.34 31.04 15 29 C14.34 29 13.68 29 13 29 C12.76925781 28.11957031 12.53851563 27.23914063 12.30078125 26.33203125 C10.45919456 19.77365334 9.14339583 15.62905625 4 11 C0 3.66019417 0 3.66019417 0 0 Z " fill="#CFCFCF" transform="translate(461,127)"/>
<path d="M0 0 C1.32 0 2.64 0 4 0 C4.37125 0.845625 4.7425 1.69125 5.125 2.5625 C7.75291631 7.38034657 11.1373711 11.2469375 15.125 15 C17.16812519 17.17933354 18.5014324 19.506383 19.91796875 22.125 C21.07482433 24.12965948 22.37422667 25.95229944 23.75 27.8125 C26 31 26 31 26 33 C22.40690966 31.80230322 21.57906747 30.5323211 19.3125 27.5625 C18.68988281 26.75941406 18.06726563 25.95632812 17.42578125 25.12890625 C16 23 16 23 16 21 C15.01 20.67 14.02 20.34 13 20 C12.3125 17.9375 12.3125 17.9375 12 16 C11.34 16 10.68 16 10 16 C8.98133771 14.34467377 7.98189187 12.67739862 7 11 C6.34 10.67 5.68 10.34 5 10 C2.87162047 6.8074307 1.33407921 3.59175173 0 0 Z " fill="#6C6C6C" transform="translate(435,94)"/>
<path d="M0 0 C0.33 0 0.66 0 1 0 C1 13.53 1 27.06 1 41 C0.34 41 -0.32 41 -1 41 C-0.98839844 41.59425781 -0.97679687 42.18851562 -0.96484375 42.80078125 C-0.89538409 49.18114695 -0.84192133 55.70704421 -2 62 C-2.66 62.66 -3.32 63.32 -4 64 C-4.71927295 66.31765729 -5.3909893 68.65095874 -6 71 C-7.49574876 68.00850247 -6.64805018 65.70118979 -6.125 62.4375 C-5.94195312 61.26058594 -5.75890625 60.08367187 -5.5703125 58.87109375 C-5 56 -5 56 -4 55 C-0.51537412 36.81934324 -0.30408948 18.44361496 0 0 Z " fill="#989898" transform="translate(494,224)"/>
<path d="M0 0 C0.66 0 1.32 0 2 0 C2.02685938 2.14576637 2.04633088 4.29162645 2.0625 6.4375 C2.07410156 7.63246094 2.08570313 8.82742188 2.09765625 10.05859375 C2 13 2 13 1 14 C0.70106521 15.84984397 0.43621973 17.70523771 0.1875 19.5625 C-0.56106541 24.3601238 -1.74301365 27.85755199 -4.11328125 32.04296875 C-5.69041404 35.52377724 -5.82507422 39.22160323 -6 43 C-7.485 43.495 -7.485 43.495 -9 44 C-6.76744186 25.76744186 -6.76744186 25.76744186 -2 21 C-1.77329092 19.44246949 -1.60564908 17.87622641 -1.46484375 16.30859375 C-1.33432617 14.89223633 -1.33432617 14.89223633 -1.20117188 13.44726562 C-1.0706543 11.95743164 -1.0706543 11.95743164 -0.9375 10.4375 C-0.84662109 9.44041016 -0.75574219 8.44332031 -0.66210938 7.41601562 C-0.43741186 4.94434298 -0.21689649 2.47236744 0 0 Z " fill="#E2E2E2" transform="translate(493,265)"/>
<path d="M0 0 C1.5 1.3125 1.5 1.3125 3 3 C3 3.99 3 4.98 3 6 C4.32 6.33 5.64 6.66 7 7 C8.45184478 11.53701494 9.23509196 15.18061476 9 20 C8.01 19.67 7.02 19.34 6 19 C4.5216774 16.04335481 4.93967217 13.25770263 5 10 C4.34 10 3.68 10 3 10 C2.67 8.02 2.34 6.04 2 4 C1.34 4 0.68 4 0 4 C0 2.68 0 1.36 0 0 Z " fill="#4F4F4F" transform="translate(474,152)"/>
<path d="M0 0 C1.42307807 0.94871871 2.8456754 1.89816777 4.265625 2.8515625 C5.95209437 3.9682787 7.66334184 5.04728931 9.375 6.125 C10.24125 6.74375 11.1075 7.3625 12 8 C12 8.66 12 9.32 12 10 C12.928125 10.226875 13.85625 10.45375 14.8125 10.6875 C18.51432143 12.21177941 19.45557765 13.36606505 21 17 C20.67 17.66 20.34 18.32 20 19 C19.0925 18.05125 18.185 17.1025 17.25 16.125 C14.99021123 13.85450133 13.03429084 12.16703494 10 11 C10 10.34 10 9.68 10 9 C9.401875 8.9175 8.80375 8.835 8.1875 8.75 C5.38926857 7.79060637 4.69589407 6.35950479 3 4 C2.01 3.67 1.02 3.34 0 3 C0 2.01 0 1.02 0 0 Z " fill="#707070" transform="translate(414,75)"/>
<path d="M0 0 C6.85823213 1.00856355 11.39758578 3.87159559 16 9 C16.33 9.66 16.66 10.32 17 11 C12.30094351 10.51178634 9.30142845 8.33669232 5.6875 5.5 C5.13771484 5.08363281 4.58792969 4.66726562 4.02148438 4.23828125 C2.65631329 3.19023687 1.32475829 2.09868311 0 1 C0 0.67 0 0.34 0 0 Z " fill="#7C7C7C" transform="translate(385,56)"/>
<path d="M0 0 C0.33 0 0.66 0 1 0 C3.07578081 5.81218627 3.42127688 11.45419537 3.75390625 17.59765625 C3.9846495 20.78777327 4.42106541 23.85652869 5 27 C2.37548383 24.37548383 2.4167132 22.5122172 1.875 18.875 C1.62363281 17.23144531 1.62363281 17.23144531 1.3671875 15.5546875 C1.18542969 14.29011719 1.18542969 14.29011719 1 13 C0.67 13 0.34 13 0 13 C0 8.71 0 4.42 0 0 Z " fill="#282828" transform="translate(485,180)"/>
<path d="M0 0 C0.33 0 0.66 0 1 0 C1.25 7.625 1.25 7.625 -1 11 C-1.45394552 13.27912938 -1.45394552 13.27912938 -1.625 15.6875 C-1.69976562 16.49574219 -1.77453125 17.30398438 -1.8515625 18.13671875 C-1.90054687 18.75160156 -1.94953125 19.36648438 -2 20 C-2.99 20.33 -3.98 20.66 -5 21 C-4.40641911 16.15242277 -3.41781039 11.67043423 -2 7 C-1.6226272 5.68818026 -1.24755652 4.37569568 -0.875 3.0625 C-0.441875 1.5465625 -0.441875 1.5465625 0 0 Z " fill="#C0C0C0" transform="translate(489,288)"/>
<path d="M0 0 C0.33 0.66 0.66 1.32 1 2 C1.66 2 2.32 2 3 2 C5.25768639 9.34103058 6.5697663 16.3299717 7 24 C4.82055808 20.73083711 4.29803223 18.38351302 3.5 14.5625 C2.59497486 10.06595649 2.59497486 10.06595649 0.90625 5.83984375 C0 4 0 4 0 0 Z " fill="#959595" transform="translate(483,172)"/>
<path d="M0 0 C3.5016211 2.33441407 4.3743603 4.15103574 6.25 7.875 C6.79140625 8.92429688 7.3328125 9.97359375 7.890625 11.0546875 C9.01592261 14.0422734 9.19958565 15.11262525 8 18 C7.34 16.02 6.68 14.04 6 12 C5.34 12 4.68 12 4 12 C3.3291288 10.3767313 2.66342971 8.75132422 2 7.125 C1.62875 6.22007812 1.2575 5.31515625 0.875 4.3828125 C0 2 0 2 0 0 Z " fill="#8D8D8D" transform="translate(469,140)"/>
<path d="M0 0 C1.32 0 2.64 0 4 0 C4.61875 1.36125 4.61875 1.36125 5.25 2.75 C6.89050718 5.79665618 8.44718361 7.71126806 11 10 C10.67 10.66 10.34 11.32 10 12 C8.51152063 10.76110404 7.03449895 9.5084328 5.5625 8.25 C4.73878906 7.55390625 3.91507812 6.8578125 3.06640625 6.140625 C0.98703549 3.98656985 0.36132674 2.91689219 0 0 Z " fill="#888888" transform="translate(435,94)"/>
<path d="M0 0 C0.33 0 0.66 0 1 0 C1.20852314 6.40629424 1.1583195 11.92972642 -1 18 C-1.33 18 -1.66 18 -2 18 C-2.12022642 12.22913206 -1.91696124 6.70553659 -1 1 C-0.67 0.67 -0.34 0.34 0 0 Z " fill="#141414" transform="translate(492,244)"/>
<path d="M0 0 C6.36363636 -0.48951049 6.36363636 -0.48951049 9.4375 1.875 C11 4 11 4 11 6 C11.99 6 12.98 6 14 6 C14 6.66 14 7.32 14 8 C9.02790438 6.23570801 4.56561939 3.6060834 0 1 C0 0.67 0 0.34 0 0 Z " fill="#B3B3B3" transform="translate(371,48)"/>
<path d="M0 0 C4.24217705 3.35427952 7.77738688 6.63999401 11 11 C11 11.99 11 12.98 11 14 C10.01 13.67 9.02 13.34 8 13 C7.3125 10.9375 7.3125 10.9375 7 9 C6.34 9 5.68 9 5 9 C3.98133771 7.34467377 2.98189187 5.67739862 2 4 C1.34 3.67 0.68 3.34 0 3 C0 2.01 0 1.02 0 0 Z " fill="#3A3A3A" transform="translate(440,101)"/>
<path d="M0 0 C3 1 3 1 4.16796875 2.9609375 C4.50441406 3.75757813 4.84085937 4.55421875 5.1875 5.375 C5.70376953 6.56222656 5.70376953 6.56222656 6.23046875 7.7734375 C7 10 7 10 7 13 C3.77477676 10.84985117 3.26937837 9.93845623 1.8125 6.5 C1.46832031 5.7059375 1.12414062 4.911875 0.76953125 4.09375 C0 2 0 2 0 0 Z " fill="#717171" transform="translate(461,127)"/>
<path d="M0 0 C4.81397943 4.05387741 5.88541926 7.0217942 7 13 C6.01 12.67 5.02 12.34 4 12 C4 10.68 4 9.36 4 8 C3.34 8 2.68 8 2 8 C1.34 5.36 0.68 2.72 0 0 Z " fill="#2F2F2F" transform="translate(466,138)"/>
<path d="M0 0 C0.99 0.33 1.98 0.66 3 1 C4.65049717 5.43028188 5.22973141 9.29050618 5 14 C2.99006295 10.98509443 2.27376659 8.7850073 1.375 5.3125 C1.11460937 4.31863281 0.85421875 3.32476562 0.5859375 2.30078125 C0.39257812 1.54152344 0.19921875 0.78226563 0 0 Z " fill="#9D9D9D" transform="translate(478,158)"/>
<path d="M0 0 C3.70066609 0.90460727 5.56497978 1.43868358 7.9375 4.5 C8.288125 5.325 8.63875 6.15 9 7 C8.67 7.66 8.34 8.32 8 9 C6.66368764 7.6905332 5.33102075 6.37734515 4 5.0625 C3.2575 4.33160156 2.515 3.60070312 1.75 2.84765625 C0 1 0 1 0 0 Z " fill="#A7A7A7" transform="translate(426,85)"/>
<path d="M0 0 C0.66 0 1.32 0 2 0 C2.13277344 0.61488281 2.26554687 1.22976562 2.40234375 1.86328125 C2.57894531 2.67152344 2.75554687 3.47976562 2.9375 4.3125 C3.19853516 5.51326172 3.19853516 5.51326172 3.46484375 6.73828125 C3.99886159 9.145401 3.99886159 9.145401 5 12 C4.34 12 3.68 12 3 12 C2.49440092 10.56445975 1.9957251 9.1264798 1.5 7.6875 C1.2215625 6.88699219 0.943125 6.08648437 0.65625 5.26171875 C0 3 0 3 0 0 Z " fill="#D8D8D8" transform="translate(481,162)"/>
<path d="M0 0 C1.98 0.99 1.98 0.99 4 2 C4 2.99 4 3.98 4 5 C4.639375 5.12375 5.27875 5.2475 5.9375 5.375 C6.618125 5.58125 7.29875 5.7875 8 6 C8.33 6.66 8.66 7.32 9 8 C8.01 8 7.02 8 6 8 C6 7.34 6 6.68 6 6 C5.071875 5.9071875 5.071875 5.9071875 4.125 5.8125 C2 5 2 5 0.75 2.4375 C0.5025 1.633125 0.255 0.82875 0 0 Z " fill="#2C2C2C" transform="translate(410,73)"/>
</svg>
